<?xml version="1.0" encoding="UTF-8"?>
<!DOCTYPE svg PUBLIC "-//W3C//DTD SVG 1.1//EN" "http://www.w3.org/Graphics/SVG/1.1/DTD/svg11.dtd">
<svg version="1.1" xmlns="http://www.w3.org/2000/svg" xmlns:xlink="http://www.w3.org/1999/xlink" x="0" y="0" width="499" height="320" viewBox="0, 0, 499, 320">
  <g id="Layer_1">
    <g>
      <g>
        <path d="M379.104,4.59 C385.874,4.21 392.974,3.86 399.454,6.24 C399.614,6.51 399.934,7.06 400.094,7.33 C396.454,12.76 390.734,16.2 384.774,18.55 C380.264,19.4 375.804,20.63 371.734,22.77 C362.784,27.34 352.994,29.82 343.604,33.26 C333.164,36.51 323.234,41.15 312.874,44.63 C304.114,47.57 295.814,51.7 287.124,54.81 C279.004,57.94 270.774,60.83 262.904,64.58 C254.634,68.46 245.914,71.27 237.784,75.44 C227.674,80.26 216.964,83.66 206.964,88.7 C199.644,92.4 191.744,94.7 184.364,98.22 C171.334,104.6 157.474,109.01 144.224,114.86 C135.274,118.83 125.924,121.78 116.894,125.53 C102.534,131.62 87.314,135.19 72.604,140.23 C62.084,143.48 51.124,146.29 42.024,152.76 C35.624,156.95 30.794,163.03 26.584,169.32 C21.444,176.99 19.354,186.18 17.614,195.11 C16.074,206.91 16.594,218.98 19.424,230.55 C22.734,249.22 32.034,265.94 40.144,282.83 C35.864,279.68 33.134,275.07 29.804,271.05 C24.804,265.37 21.524,258.48 17.944,251.88 C12.184,241.63 8.694,230.27 6.304,218.81 C4.674,208.88 4.034,198.65 5.854,188.69 C7.924,178.13 11.424,167.53 18.244,159.03 C21.834,154.65 25.124,149.91 29.664,146.43 C34.984,142.36 40.004,137.78 46.044,134.77 C53.404,130.99 61.474,128.92 69.034,125.61 C77.594,121.42 86.754,118.63 95.634,115.18 C105.134,110.75 115.044,107.24 124.894,103.63 C131.754,101.44 138.004,97.77 144.864,95.56 C161.324,89.39 177.434,82.36 194.054,76.57 C203.114,72.35 212.534,68.98 221.884,65.46 C234.054,59.91 246.824,55.84 259.204,50.81 C268.434,46.33 278.424,43.69 287.764,39.45 C296.154,35.45 305.144,32.94 313.704,29.33 C321.914,26.52 329.574,22.36 337.864,19.72 C351.934,15.53 364.194,6.07 379.104,4.59 z" fill="#FFDA64"/>
        <path d="M379.104,4.59 C385.874,4.21 392.974,3.86 399.454,6.24 C399.614,6.51 399.934,7.06 400.094,7.33 C396.454,12.76 390.734,16.2 384.774,18.55 C380.264,19.4 375.804,20.63 371.734,22.77 C362.784,27.34 352.994,29.82 343.604,33.26 C333.164,36.51 323.234,41.15 312.874,44.63 C304.114,47.57 295.814,51.7 287.124,54.81 C279.004,57.94 270.774,60.83 262.904,64.58 C254.634,68.46 245.914,71.27 237.784,75.44 C227.674,80.26 216.964,83.66 206.964,88.7 C199.644,92.4 191.744,94.7 184.364,98.22 C171.334,104.6 157.474,109.01 144.224,114.86 C135.274,118.83 125.924,121.78 116.894,125.53 C102.534,131.62 87.314,135.19 72.604,140.23 C62.084,143.48 51.124,146.29 42.024,152.76 C35.624,156.95 30.794,163.03 26.584,169.32 C21.444,176.99 19.354,186.18 17.614,195.11 C16.074,206.91 16.594,218.98 19.424,230.55 C22.734,249.22 32.034,265.94 40.144,282.83 C35.864,279.68 33.134,275.07 29.804,271.05 C24.804,265.37 21.524,258.48 17.944,251.88 C12.184,241.63 8.694,230.27 6.304,218.81 C4.674,208.88 4.034,198.65 5.854,188.69 C7.924,178.13 11.424,167.53 18.244,159.03 C21.834,154.65 25.124,149.91 29.664,146.43 C34.984,142.36 40.004,137.78 46.044,134.77 C53.404,130.99 61.474,128.92 69.034,125.61 C77.594,121.42 86.754,118.63 95.634,115.18 C105.134,110.75 115.044,107.24 124.894,103.63 C131.754,101.44 138.004,97.77 144.864,95.56 C161.324,89.39 177.434,82.36 194.054,76.57 C203.114,72.35 212.534,68.98 221.884,65.46 C234.054,59.91 246.824,55.84 259.204,50.81 C268.434,46.33 278.424,43.69 287.764,39.45 C296.154,35.45 305.144,32.94 313.704,29.33 C321.914,26.52 329.574,22.36 337.864,19.72 C351.934,15.53 364.194,6.07 379.104,4.59 z" fill-opacity="0" stroke="#FFDA64" stroke-width="0.5"/>
      </g>
      <g>
        <path d="M384.774,18.55 C390.734,16.2 396.454,12.76 400.094,7.33 C405.374,9.3 408.644,13.98 411.214,18.74 C409.234,19.56 407.344,20.53 405.494,21.57 C398.804,19.42 391.754,18.67 384.774,18.55 z" fill="#FFAE3E"/>
        <path d="M384.774,18.55 C390.734,16.2 396.454,12.76 400.094,7.33 C405.374,9.3 408.644,13.98 411.214,18.74 C409.234,19.56 407.344,20.53 405.494,21.57 C398.804,19.42 391.754,18.67 384.774,18.55 z" fill-opacity="0" stroke="#FFAE3E" stroke-width="0.5"/>
      </g>
      <g>
        <path d="M411.214,18.74 C413.964,17.4 416.964,16.78 420.044,17.01 C423.924,17.28 428.184,16.24 431.764,18.25 C434.334,19.41 436.704,20.99 439.054,22.57 C431.834,22.1 423.914,22.54 418.444,27.92 C414.134,25.79 409.964,23.34 405.494,21.57 C407.344,20.53 409.234,19.56 411.214,18.74 z" fill="#D52501"/>
        <path d="M411.214,18.74 C413.964,17.4 416.964,16.78 420.044,17.01 C423.924,17.28 428.184,16.24 431.764,18.25 C434.334,19.41 436.704,20.99 439.054,22.57 C431.834,22.1 423.914,22.54 418.444,27.92 C414.134,25.79 409.964,23.34 405.494,21.57 C407.344,20.53 409.234,19.56 411.214,18.74 z" fill-opacity="0" stroke="#D52501" stroke-width="0.5"/>
      </g>
      <g>
        <path d="M371.734,22.77 C375.804,20.63 380.264,19.4 384.774,18.55 C391.754,18.67 398.804,19.42 405.494,21.57 C409.964,23.34 414.134,25.79 418.444,27.92 C425.484,31.99 432.954,35.45 439.374,40.49 C441.504,41.88 442.054,44.42 442.724,46.72 C441.054,48.33 439.524,50.12 437.604,51.44 C436.074,51.51 434.614,51.06 433.214,50.6 C423.794,45.25 414.504,39.65 404.894,34.69 C400.394,32.86 395.664,31.61 390.854,30.96 C392.994,34.13 395.164,37.31 396.844,40.77 C399.904,46.8 401.524,53.39 403.514,59.82 C404.374,63.64 406.504,67.78 404.964,71.67 C403.524,74.19 400.944,76.19 398.004,76.5 C391.434,77.2 384.804,76.7 378.284,75.87 C371.194,74.82 363.954,75.47 356.934,74.02 C351.704,72.85 346.334,73.19 341.054,72.74 C332.984,72.24 324.874,71.05 316.814,72.28 C317.304,74.84 318.264,77.3 319.884,79.38 C320.834,80.58 321.874,81.73 322.884,82.92 C324.044,86.12 325.724,89.72 324.434,93.14 C321.224,97.79 315.254,99.02 310.274,100.92 C298.394,103.52 286.094,101.51 274.414,98.8 C263.474,96.82 252.154,95.83 241.174,98 C239.124,98.39 237.364,99.54 235.594,100.54 C237.744,102.6 239.944,104.63 242.284,106.5 C249.474,112.99 257.104,119.52 261.614,128.28 C259.704,130.66 258.084,133.72 254.984,134.69 C250.824,135.92 246.434,135.78 242.154,136.1 C235.874,135.71 229.574,135.79 223.314,135.32 C213.644,133.74 203.844,133.24 194.074,132.68 C183.054,132.56 171.584,131.9 161.144,136.1 C162.874,138.6 164.654,141.08 166.664,143.39 C171.944,149.65 178.014,156.94 176.324,165.76 C174.434,166.4 172.524,166.97 170.624,167.56 C164.064,167.22 157.354,167.16 151.094,164.96 C141.254,161.21 130.984,158.77 120.794,156.21 C117.174,155.23 113.374,155.29 109.814,156.42 C111.774,161.01 114.704,165.13 118.384,168.52 C121.494,171.77 125.554,175.06 125.804,179.93 C126.254,183.12 123.234,185.32 120.674,186.5 C107.764,191.74 93.604,190.37 80.014,190.43 C74.184,190.93 70.394,182.51 74.574,178.34 C76.024,175.98 78.934,175.93 81.394,175.59 C79.494,176.94 77.664,178.39 75.834,179.84 C75.934,180.51 76.134,181.87 76.234,182.55 C79.984,183.51 83.714,184.58 87.544,185.21 C93.324,186.11 99.214,185.11 104.814,183.59 C106.434,183.06 108.444,182.59 109.174,180.83 C107.864,178.67 105.934,177.03 104.114,175.35 C104.594,175.38 105.564,175.43 106.044,175.46 C102.204,172.52 98.254,169.6 95.474,165.59 C94.544,163.74 93.754,161.85 93.084,159.92 C92.514,158.1 92.054,156.27 91.604,154.45 C94.164,149.41 96.924,143.54 102.674,141.54 C109.314,139.52 116.404,140.4 123.144,141.44 C128.394,142.54 133.514,144.21 138.644,145.78 C144.274,147.46 149.544,150.09 155.104,151.94 C152.644,148.26 149.714,144.94 146.894,141.56 C144.664,138.86 143.124,135.69 141.544,132.6 C144.174,130.09 146.584,127.25 149.864,125.55 C158.074,121.1 167.484,120 176.574,118.61 C182.494,118.73 188.414,118.88 194.344,119.06 C198.764,119.67 203.214,120.03 207.694,120.05 C217.504,121.98 227.584,122.06 237.554,122 C233.564,117.05 228.234,113.46 223.844,108.91 C223.504,108.59 222.834,107.97 222.504,107.66 C220.184,105.42 217.804,103.26 215.204,101.39 C215.474,98.91 215.154,95.85 217.474,94.24 C229.474,84.46 245.644,82.46 260.624,83.34 C267.264,83.82 273.964,84.01 280.554,85.15 C289.774,86.03 299.224,85.76 308.154,88.59 C304.524,85.17 300.914,81.71 297.614,77.97 C297.194,74.22 296.904,70.46 296.694,66.7 C298.824,64.41 300.624,61.65 303.484,60.18 C306.184,58.83 309.234,58.44 312.164,57.82 C311.214,58.24 310.284,58.68 309.374,59.15 C309.324,59.77 309.224,61.01 309.174,61.62 C317.084,62.26 325.404,63.34 333.064,60.61 C333.474,58.28 330.664,58.04 329.044,57.71 C324.264,57.24 319.464,57.4 314.684,57.29 C318.004,56.51 321.374,56.04 324.784,55.78 C332.904,56.31 341.114,55.53 349.174,56.96 C353.784,57.73 358.474,57.53 363.134,58 C372.074,58.56 380.824,60.67 389.764,61.26 C388.714,55.07 386.794,48.98 383.614,43.56 C382.614,41.87 381.574,40.22 380.424,38.66 C378.774,36.87 376.904,35.32 375.154,33.67 C371.784,31.06 371.804,26.62 371.734,22.77 M374.474,23.48 C374.644,24.28 374.974,25.88 375.144,26.67 C381.364,27.08 387.694,27.64 393.894,26.52 C395.624,26.03 398.434,24.25 396.894,22.23 C389.524,21.47 381.424,20.27 374.474,23.48 M372.794,67.13 C373.494,73.16 380.704,72.2 385.124,72.13 C387.924,72.24 393.034,70.79 391.944,67.16 C389.514,65.77 386.744,65.2 384.044,64.73 C380.124,64.01 376.394,65.92 372.794,67.13 M228.304,92.13 C228.264,92.77 228.194,94.07 228.154,94.72 C235.624,95.24 242.974,93.39 249.754,90.35 C249.864,89.2 250.004,88.06 250.164,86.93 C242.394,85.51 235.004,88.55 228.304,92.13 M290.884,95.73 C292.224,96.49 293.574,97.3 295.034,97.92 C298.574,101.46 304.634,101.67 308.064,97.84 C309.174,97.45 310.294,97.04 311.424,96.59 C310.724,94.44 309.584,92.01 307.004,91.85 C301.464,91.09 294.424,90.41 290.884,95.73 M163.154,123.82 C159.414,125.25 155.274,126.38 152.614,129.57 C159.244,130.8 165.774,128.66 172.004,126.65 C173.914,126.13 175.104,124.49 176.344,123.08 C171.954,122.46 167.364,122.24 163.154,123.82 M231.044,128.81 C234.084,130.72 237.314,132.88 241.084,132.73 C244.844,132.98 248.294,131.24 251.574,129.62 C250.914,127.97 250.564,125.88 248.634,125.32 C244.904,124.12 240.874,124.33 237.044,124.66 C234.424,124.86 232.854,127.22 231.044,128.81 M105.114,145.18 C103.644,148.21 106.344,151.06 109.254,151.55 C113.414,152.26 117.734,152.26 121.924,151.61 C124.884,151.02 126.624,148.3 128.304,146.05 C124.284,143.79 119.844,141.7 115.114,142.11 C111.624,142.45 108.164,143.45 105.114,145.18 z" fill="#FFDD00"/>
        <path d="M371.734,22.77 C375.804,20.63 380.264,19.4 384.774,18.55 C391.754,18.67 398.804,19.42 405.494,21.57 C409.964,23.34 414.134,25.79 418.444,27.92 C425.484,31.99 432.954,35.45 439.374,40.49 C441.504,41.88 442.054,44.42 442.724,46.72 C441.054,48.33 439.524,50.12 437.604,51.44 C436.074,51.51 434.614,51.06 433.214,50.6 C423.794,45.25 414.504,39.65 404.894,34.69 C400.394,32.86 395.664,31.61 390.854,30.96 C392.994,34.13 395.164,37.31 396.844,40.77 C399.904,46.8 401.524,53.39 403.514,59.82 C404.374,63.64 406.504,67.78 404.964,71.67 C403.524,74.19 400.944,76.19 398.004,76.5 C391.434,77.2 384.804,76.7 378.284,75.87 C371.194,74.82 363.954,75.47 356.934,74.02 C351.704,72.85 346.334,73.19 341.054,72.74 C332.984,72.24 324.874,71.05 316.814,72.28 C317.304,74.84 318.264,77.3 319.884,79.38 C320.834,80.58 321.874,81.73 322.884,82.92 C324.044,86.12 325.724,89.72 324.434,93.14 C321.224,97.79 315.254,99.02 310.274,100.92 C298.394,103.52 286.094,101.51 274.414,98.8 C263.474,96.82 252.154,95.83 241.174,98 C239.124,98.39 237.364,99.54 235.594,100.54 C237.744,102.6 239.944,104.63 242.284,106.5 C249.474,112.99 257.104,119.52 261.614,128.28 C259.704,130.66 258.084,133.72 254.984,134.69 C250.824,135.92 246.434,135.78 242.154,136.1 C235.874,135.71 229.574,135.79 223.314,135.32 C213.644,133.74 203.844,133.24 194.074,132.68 C183.054,132.56 171.584,131.9 161.144,136.1 C162.874,138.6 164.654,141.08 166.664,143.39 C171.944,149.65 178.014,156.94 176.324,165.76 C174.434,166.4 172.524,166.97 170.624,167.56 C164.064,167.22 157.354,167.16 151.094,164.96 C141.254,161.21 130.984,158.77 120.794,156.21 C117.174,155.23 113.374,155.29 109.814,156.42 C111.774,161.01 114.704,165.13 118.384,168.52 C121.494,171.77 125.554,175.06 125.804,179.93 C126.254,183.12 123.234,185.32 120.674,186.5 C107.764,191.74 93.604,190.37 80.014,190.43 C74.184,190.93 70.394,182.51 74.574,178.34 C76.024,175.98 78.934,175.93 81.394,175.59 C79.494,176.94 77.664,178.39 75.834,179.84 C75.934,180.51 76.134,181.87 76.234,182.55 C79.984,183.51 83.714,184.58 87.544,185.21 C93.324,186.11 99.214,185.11 104.814,183.59 C106.434,183.06 108.444,182.59 109.174,180.83 C107.864,178.67 105.934,177.03 104.114,175.35 C104.594,175.38 105.564,175.43 106.044,175.46 C102.204,172.52 98.254,169.6 95.474,165.59 C94.544,163.74 93.754,161.85 93.084,159.92 C92.514,158.1 92.054,156.27 91.604,154.45 C94.164,149.41 96.924,143.54 102.674,141.54 C109.314,139.52 116.404,140.4 123.144,141.44 C128.394,142.54 133.514,144.21 138.644,145.78 C144.274,147.46 149.544,150.09 155.104,151.94 C152.644,148.26 149.714,144.94 146.894,141.56 C144.664,138.86 143.124,135.69 141.544,132.6 C144.174,130.09 146.584,127.25 149.864,125.55 C158.074,121.1 167.484,120 176.574,118.61 C182.494,118.73 188.414,118.88 194.344,119.06 C198.764,119.67 203.214,120.03 207.694,120.05 C217.504,121.98 227.584,122.06 237.554,122 C233.564,117.05 228.234,113.46 223.844,108.91 C223.504,108.59 222.834,107.97 222.504,107.66 C220.184,105.42 217.804,103.26 215.204,101.39 C215.474,98.91 215.154,95.85 217.474,94.24 C229.474,84.46 245.644,82.46 260.624,83.34 C267.264,83.82 273.964,84.01 280.554,85.15 C289.774,86.03 299.224,85.76 308.154,88.59 C304.524,85.17 300.914,81.71 297.614,77.97 C297.194,74.22 296.904,70.46 296.694,66.7 C298.824,64.41 300.624,61.65 303.484,60.18 C306.184,58.83 309.234,58.44 312.164,57.82 C311.214,58.24 310.284,58.68 309.374,59.15 C309.324,59.77 309.224,61.01 309.174,61.62 C317.084,62.26 325.404,63.34 333.064,60.61 C333.474,58.28 330.664,58.04 329.044,57.71 C324.264,57.24 319.464,57.4 314.684,57.29 C318.004,56.51 321.374,56.04 324.784,55.78 C332.904,56.31 341.114,55.53 349.174,56.96 C353.784,57.73 358.474,57.53 363.134,58 C372.074,58.56 380.824,60.67 389.764,61.26 C388.714,55.07 386.794,48.98 383.614,43.56 C382.614,41.87 381.574,40.22 380.424,38.66 C378.774,36.87 376.904,35.32 375.154,33.67 C371.784,31.06 371.804,26.62 371.734,22.77 M374.474,23.48 C374.644,24.28 374.974,25.88 375.144,26.67 C381.364,27.08 387.694,27.64 393.894,26.52 C395.624,26.03 398.434,24.25 396.894,22.23 C389.524,21.47 381.424,20.27 374.474,23.48 M372.794,67.13 C373.494,73.16 380.704,72.2 385.124,72.13 C387.924,72.24 393.034,70.79 391.944,67.16 C389.514,65.77 386.744,65.2 384.044,64.73 C380.124,64.01 376.394,65.92 372.794,67.13 M228.304,92.13 C228.264,92.77 228.194,94.07 228.154,94.72 C235.624,95.24 242.974,93.39 249.754,90.35 C249.864,89.2 250.004,88.06 250.164,86.93 C242.394,85.51 235.004,88.55 228.304,92.13 M290.884,95.73 C292.224,96.49 293.574,97.3 295.034,97.92 C298.574,101.46 304.634,101.67 308.064,97.84 C309.174,97.45 310.294,97.04 311.424,96.59 C310.724,94.44 309.584,92.01 307.004,91.85 C301.464,91.09 294.424,90.41 290.884,95.73 M163.154,123.82 C159.414,125.25 155.274,126.38 152.614,129.57 C159.244,130.8 165.774,128.66 172.004,126.65 C173.914,126.13 175.104,124.49 176.344,123.08 C171.954,122.46 167.364,122.24 163.154,123.82 M231.044,128.81 C234.084,130.72 237.314,132.88 241.084,132.73 C244.844,132.98 248.294,131.24 251.574,129.62 C250.914,127.97 250.564,125.88 248.634,125.32 C244.904,124.12 240.874,124.33 237.044,124.66 C234.424,124.86 232.854,127.22 231.044,128.81 M105.114,145.18 C103.644,148.21 106.344,151.06 109.254,151.55 C113.414,152.26 117.734,152.26 121.924,151.61 C124.884,151.02 126.624,148.3 128.304,146.05 C124.284,143.79 119.844,141.7 115.114,142.11 C111.624,142.45 108.164,143.45 105.114,145.18 z" fill-opacity="0" stroke="#FFDD00" stroke-width="0.5"/>
      </g>
      <g>
        <path d="M374.474,23.48 C381.424,20.27 389.524,21.47 396.894,22.23 C398.434,24.25 395.624,26.03 393.894,26.52 C387.694,27.64 381.364,27.08 375.144,26.67 C374.974,25.88 374.644,24.28 374.474,23.48 z" fill="#FFFD67"/>
        <path d="M374.474,23.48 C381.424,20.27 389.524,21.47 396.894,22.23 C398.434,24.25 395.624,26.03 393.894,26.52 C387.694,27.64 381.364,27.08 375.144,26.67 C374.974,25.88 374.644,24.28 374.474,23.48 z" fill-opacity="0" stroke="#FFFD67" stroke-width="0.5"/>
      </g>
      <g>
        <path d="M418.444,27.92 C423.914,22.54 431.834,22.1 439.054,22.57 C444.764,28.51 449.764,35.51 451.624,43.67 C449.944,44.48 448.344,45.42 446.784,46.4 C445.404,46.5 444.064,46.61 442.724,46.72 C442.054,44.42 441.504,41.88 439.374,40.49 C432.954,35.45 425.484,31.99 418.444,27.92 z" fill="#AD0604"/>
        <path d="M418.444,27.92 C423.914,22.54 431.834,22.1 439.054,22.57 C444.764,28.51 449.764,35.51 451.624,43.67 C449.944,44.48 448.344,45.42 446.784,46.4 C445.404,46.5 444.064,46.61 442.724,46.72 C442.054,44.42 441.504,41.88 439.374,40.49 C432.954,35.45 425.484,31.99 418.444,27.92 z" fill-opacity="0" stroke="#AD0604" stroke-width="0.5"/>
      </g>
      <g>
        <path d="M343.604,33.26 C352.994,29.82 362.784,27.34 371.734,22.77 C371.804,26.62 371.784,31.06 375.154,33.67 C366.154,37.3 357.584,41.91 348.454,45.23 C340.364,48.3 332.664,52.25 324.784,55.78 C321.374,56.04 318.004,56.51 314.684,57.29 C314.054,57.42 312.794,57.69 312.164,57.82 C309.234,58.44 306.184,58.83 303.484,60.18 C300.624,61.65 298.824,64.41 296.694,66.7 C293.574,68.75 290.004,69.9 286.604,71.34 C281.414,73.38 276.494,76.05 271.294,78.03 C267.564,79.45 263.824,80.93 260.624,83.34 C245.644,82.46 229.474,84.46 217.474,94.24 C215.154,95.85 215.474,98.91 215.204,101.39 C208.664,105.09 201.474,107.36 194.584,110.28 C188.424,112.71 182.474,115.62 176.574,118.61 C167.484,120 158.074,121.1 149.864,125.55 C146.584,127.25 144.174,130.09 141.544,132.6 C135.454,135.63 128.934,137.8 123.144,141.44 C116.404,140.4 109.314,139.52 102.674,141.54 C96.924,143.54 94.164,149.41 91.604,154.45 C82.214,157.64 73.134,161.66 64.154,165.84 C56.504,169.36 48.274,171.6 40.924,175.76 C33.274,180.78 29.174,189.64 26.704,198.15 C25.784,205.58 25.474,213.47 28.284,220.56 C30.994,228 34.024,235.56 39.294,241.61 C43.934,246.64 49.914,250.19 56.054,253.08 C54.914,266.99 54.144,281.33 58.034,294.9 C56.894,295.13 55.764,295.34 54.634,295.54 C48.594,293 44.704,287.27 40.144,282.83 C32.034,265.94 22.734,249.22 19.424,230.55 C16.594,218.98 16.074,206.91 17.614,195.11 C19.354,186.18 21.444,176.99 26.584,169.32 C30.794,163.03 35.624,156.95 42.024,152.76 C51.124,146.29 62.084,143.48 72.604,140.23 C87.314,135.19 102.534,131.62 116.894,125.53 C125.924,121.78 135.274,118.83 144.224,114.86 C157.474,109.01 171.334,104.6 184.364,98.22 C191.744,94.7 199.644,92.4 206.964,88.7 C216.964,83.66 227.674,80.26 237.784,75.44 C245.914,71.27 254.634,68.46 262.904,64.58 C270.774,60.83 279.004,57.94 287.124,54.81 C295.814,51.7 304.114,47.57 312.874,44.63 C323.234,41.15 333.164,36.51 343.604,33.26 z" fill="#FFAE3E"/>
        <path d="M343.604,33.26 C352.994,29.82 362.784,27.34 371.734,22.77 C371.804,26.62 371.784,31.06 375.154,33.67 C366.154,37.3 357.584,41.91 348.454,45.23 C340.364,48.3 332.664,52.25 324.784,55.78 C321.374,56.04 318.004,56.51 314.684,57.29 C314.054,57.42 312.794,57.69 312.164,57.82 C309.234,58.44 306.184,58.83 303.484,60.18 C300.624,61.65 298.824,64.41 296.694,66.7 C293.574,68.75 290.004,69.9 286.604,71.34 C281.414,73.38 276.494,76.05 271.294,78.03 C267.564,79.45 263.824,80.93 260.624,83.34 C245.644,82.46 229.474,84.46 217.474,94.24 C215.154,95.85 215.474,98.91 215.204,101.39 C208.664,105.09 201.474,107.36 194.584,110.28 C188.424,112.71 182.474,115.62 176.574,118.61 C167.484,120 158.074,121.1 149.864,125.55 C146.584,127.25 144.174,130.09 141.544,132.6 C135.454,135.63 128.934,137.8 123.144,141.44 C116.404,140.4 109.314,139.52 102.674,141.54 C96.924,143.54 94.164,149.41 91.604,154.45 C82.214,157.64 73.134,161.66 64.154,165.84 C56.504,169.36 48.274,171.6 40.924,175.76 C33.274,180.78 29.174,189.64 26.704,198.15 C25.784,205.58 25.474,213.47 28.284,220.56 C30.994,228 34.024,235.56 39.294,241.61 C43.934,246.64 49.914,250.19 56.054,253.08 C54.914,266.99 54.144,281.33 58.034,294.9 C56.894,295.13 55.764,295.34 54.634,295.54 C48.594,293 44.704,287.27 40.144,282.83 C32.034,265.94 22.734,249.22 19.424,230.55 C16.594,218.98 16.074,206.91 17.614,195.11 C19.354,186.18 21.444,176.99 26.584,169.32 C30.794,163.03 35.624,156.95 42.024,152.76 C51.124,146.29 62.084,143.48 72.604,140.23 C87.314,135.19 102.534,131.62 116.894,125.53 C125.924,121.78 135.274,118.83 144.224,114.86 C157.474,109.01 171.334,104.6 184.364,98.22 C191.744,94.7 199.644,92.4 206.964,88.7 C216.964,83.66 227.674,80.26 237.784,75.44 C245.914,71.27 254.634,68.46 262.904,64.58 C270.774,60.83 279.004,57.94 287.124,54.81 C295.814,51.7 304.114,47.57 312.874,44.63 C323.234,41.15 333.164,36.51 343.604,33.26 z" fill-opacity="0" stroke="#FFAE3E" stroke-width="0.5"/>
      </g>
      <g>
        <path d="M390.854,30.96 C395.664,31.61 400.394,32.86 404.894,34.69 C402.394,35.52 399.924,36.39 397.464,37.28 C397.234,38.43 397.034,39.6 396.844,40.77 C395.164,37.31 392.994,34.13 390.854,30.96 z" fill="#E97D48"/>
        <path d="M390.854,30.96 C395.664,31.61 400.394,32.86 404.894,34.69 C402.394,35.52 399.924,36.39 397.464,37.28 C397.234,38.43 397.034,39.6 396.844,40.77 C395.164,37.31 392.994,34.13 390.854,30.96 z" fill-opacity="0" stroke="#E97D48" stroke-width="0.5"/>
      </g>
      <g>
        <path d="M348.454,45.23 C357.584,41.91 366.154,37.3 375.154,33.67 C376.904,35.32 378.774,36.87 380.424,38.66 C376.284,40.88 372.114,43.18 368.794,46.55 C369.664,46.65 371.404,46.85 372.274,46.95 C364.564,48.48 357.674,52.45 350.764,55.99 C354.844,56.84 358.974,57.49 363.134,58 C358.474,57.53 353.784,57.73 349.174,56.96 C341.114,55.53 332.904,56.31 324.784,55.78 C332.664,52.25 340.364,48.3 348.454,45.23 z" fill="#D62602"/>
        <path d="M348.454,45.23 C357.584,41.91 366.154,37.3 375.154,33.67 C376.904,35.32 378.774,36.87 380.424,38.66 C376.284,40.88 372.114,43.18 368.794,46.55 C369.664,46.65 371.404,46.85 372.274,46.95 C364.564,48.48 357.674,52.45 350.764,55.99 C354.844,56.84 358.974,57.49 363.134,58 C358.474,57.53 353.784,57.73 349.174,56.96 C341.114,55.53 332.904,56.31 324.784,55.78 C332.664,52.25 340.364,48.3 348.454,45.23 z" fill-opacity="0" stroke="#D62602" stroke-width="0.5"/>
      </g>
      <g>
        <path d="M397.464,37.28 C399.924,36.39 402.394,35.52 404.894,34.69 C414.504,39.65 423.794,45.25 433.214,50.6 C431.804,51.2 430.394,51.78 428.994,52.35 C421.644,55.34 414.094,57.95 407.254,62.03 C405.984,61.3 404.734,60.57 403.514,59.82 C401.524,53.39 399.904,46.8 396.844,40.77 C397.034,39.6 397.234,38.43 397.464,37.28 z" fill="#AD0604"/>
        <path d="M397.464,37.28 C399.924,36.39 402.394,35.52 404.894,34.69 C414.504,39.65 423.794,45.25 433.214,50.6 C431.804,51.2 430.394,51.78 428.994,52.35 C421.644,55.34 414.094,57.95 407.254,62.03 C405.984,61.3 404.734,60.57 403.514,59.82 C401.524,53.39 399.904,46.8 396.844,40.77 C397.034,39.6 397.234,38.43 397.464,37.28 z" fill-opacity="0" stroke="#AD0604" stroke-width="0.5"/>
      </g>
      <g>
        <path d="M368.794,46.55 C372.114,43.18 376.284,40.88 380.424,38.66 C381.574,40.22 382.614,41.87 383.614,43.56 C379.904,44.92 376.164,46.25 372.274,46.95 C371.404,46.85 369.664,46.65 368.794,46.55 z" fill="#FD945B"/>
        <path d="M368.794,46.55 C372.114,43.18 376.284,40.88 380.424,38.66 C381.574,40.22 382.614,41.87 383.614,43.56 C379.904,44.92 376.164,46.25 372.274,46.95 C371.404,46.85 369.664,46.65 368.794,46.55 z" fill-opacity="0" stroke="#FD945B" stroke-width="0.5"/>
      </g>
      <g>
        <path d="M451.624,43.67 C458.274,43.28 464.954,40.9 471.624,42.56 C475.554,43.76 479.754,45.12 482.524,48.36 C485.304,51.56 487.374,55.29 489.454,58.97 C481.604,57.54 473.854,59.95 466.104,60.84 C458.494,61.52 451.134,63.52 443.754,65.33 C432.814,67.48 421.994,70.18 411.304,73.32 C409.454,69.74 408.224,65.91 407.254,62.03 C414.094,57.95 421.644,55.34 428.994,52.35 C433.274,53.69 437.164,56 441.404,57.44 C443.414,58.26 445.324,56.56 446.424,55.03 C448.184,52.46 447.024,49.21 446.784,46.4 C448.344,45.42 449.944,44.48 451.624,43.67 z" fill="#FFCA56"/>
        <path d="M451.624,43.67 C458.274,43.28 464.954,40.9 471.624,42.56 C475.554,43.76 479.754,45.12 482.524,48.36 C485.304,51.56 487.374,55.29 489.454,58.97 C481.604,57.54 473.854,59.95 466.104,60.84 C458.494,61.52 451.134,63.52 443.754,65.33 C432.814,67.48 421.994,70.18 411.304,73.32 C409.454,69.74 408.224,65.91 407.254,62.03 C414.094,57.95 421.644,55.34 428.994,52.35 C433.274,53.69 437.164,56 441.404,57.44 C443.414,58.26 445.324,56.56 446.424,55.03 C448.184,52.46 447.024,49.21 446.784,46.4 C448.344,45.42 449.944,44.48 451.624,43.67 z" fill-opacity="0" stroke="#FFCA56" stroke-width="0.5"/>
      </g>
      <g>
        <path d="M372.274,46.95 C376.164,46.25 379.904,44.92 383.614,43.56 C386.794,48.98 388.714,55.07 389.764,61.26 C380.824,60.67 372.074,58.56 363.134,58 C358.974,57.49 354.844,56.84 350.764,55.99 C357.674,52.45 364.564,48.48 372.274,46.95 z" fill="#AE0604"/>
        <path d="M372.274,46.95 C376.164,46.25 379.904,44.92 383.614,43.56 C386.794,48.98 388.714,55.07 389.764,61.26 C380.824,60.67 372.074,58.56 363.134,58 C358.974,57.49 354.844,56.84 350.764,55.99 C357.674,52.45 364.564,48.48 372.274,46.95 z" fill-opacity="0" stroke="#AE0604" stroke-width="0.5"/>
      </g>
      <g>
        <path d="M442.724,46.72 C444.064,46.61 445.404,46.5 446.784,46.4 C447.024,49.21 448.184,52.46 446.424,55.03 C445.324,56.56 443.414,58.26 441.404,57.44 C437.164,56 433.274,53.69 428.994,52.35 C430.394,51.78 431.804,51.2 433.214,50.6 C434.614,51.06 436.074,51.51 437.604,51.44 C439.524,50.12 441.054,48.33 442.724,46.72 z" fill="#E8AD45"/>
        <path d="M442.724,46.72 C444.064,46.61 445.404,46.5 446.784,46.4 C447.024,49.21 448.184,52.46 446.424,55.03 C445.324,56.56 443.414,58.26 441.404,57.44 C437.164,56 433.274,53.69 428.994,52.35 C430.394,51.78 431.804,51.2 433.214,50.6 C434.614,51.06 436.074,51.51 437.604,51.44 C439.524,50.12 441.054,48.33 442.724,46.72 z" fill-opacity="0" stroke="#E8AD45" stroke-width="0.5"/>
      </g>
      <g>
        <path d="M312.164,57.82 C312.794,57.69 314.054,57.42 314.684,57.29 C319.464,57.4 324.264,57.24 329.044,57.71 C330.664,58.04 333.474,58.28 333.064,60.61 C325.404,63.34 317.084,62.26 309.174,61.62 C309.224,61.01 309.324,59.77 309.374,59.15 C310.284,58.68 311.214,58.24 312.164,57.82 z" fill="#FFFC65"/>
        <path d="M312.164,57.82 C312.794,57.69 314.054,57.42 314.684,57.29 C319.464,57.4 324.264,57.24 329.044,57.71 C330.664,58.04 333.474,58.28 333.064,60.61 C325.404,63.34 317.084,62.26 309.174,61.62 C309.224,61.01 309.324,59.77 309.374,59.15 C310.284,58.68 311.214,58.24 312.164,57.82 z" fill-opacity="0" stroke="#FFFC65" stroke-width="0.5"/>
      </g>
      <g>
        <path d="M466.104,60.84 C473.854,59.95 481.604,57.54 489.454,58.97 C491.884,67.04 495.114,75.28 493.754,83.87 C492.904,88.62 493.124,93.82 490.504,98.04 C491.184,92.16 492.104,86.32 492.934,80.46 C493.954,75.8 488.694,72.96 484.894,72.09 C476.444,70.83 467.534,71.21 459.464,74.2 C450.684,77.47 441.744,80.29 433.074,83.84 C425.824,86.6 419.274,90.84 412.174,93.91 C402.974,97.86 394.284,102.87 385.084,106.81 C375.874,110.73 367.184,115.75 357.974,119.66 C349.864,123.1 342.204,127.52 334.044,130.86 C323.144,135.45 312.684,141.01 301.764,145.57 C294.854,148.48 288.254,152.08 281.334,154.96 C274.744,157.73 268.094,160.35 261.664,163.47 C250.734,168.8 239.184,172.71 228.214,177.93 C220.094,181.78 211.504,184.5 203.324,188.2 C192.104,193.35 180.194,196.79 168.874,201.71 C163.854,203.96 158.914,206.37 153.824,208.46 C145.514,211.76 138.144,216.89 130.224,220.95 C119.984,226.62 110.634,233.85 102.074,241.8 C95.204,247.95 88.674,254.63 83.704,262.44 C79.734,268.58 75.644,274.65 72.104,281.05 C71.494,272.65 74.454,264.63 78.774,257.57 C82.654,250.39 87.524,243.82 93.104,237.87 C104.294,224.33 119.204,214.54 134.504,206.23 C143.624,200.5 153.184,195.54 162.554,190.24 C169.764,185.64 177.554,182.05 184.874,177.63 C193.494,172.44 202.674,168.27 211.314,163.1 C218.784,158.59 226.894,155.33 234.574,151.23 C240.374,147.85 246.564,145.26 252.624,142.39 C257.394,141.9 261.944,140.26 265.794,137.36 C275.434,133.11 285.354,129.42 294.614,124.33 C300.934,120.78 307.824,118.36 314.154,114.82 C324.114,109.15 334.834,105.01 345.004,99.73 C352.584,95.69 360.724,92.87 368.464,89.17 C373.784,86.6 379.704,85.2 384.444,81.52 C391.984,82.89 400.194,84.33 407.524,81.29 C410.864,80.09 410.964,76.29 411.304,73.32 C421.994,70.18 432.814,67.48 443.754,65.33 C451.134,63.52 458.494,61.52 466.104,60.84 z" fill="#FFAE3E"/>
        <path d="M466.104,60.84 C473.854,59.95 481.604,57.54 489.454,58.97 C491.884,67.04 495.114,75.28 493.754,83.87 C492.904,88.62 493.124,93.82 490.504,98.04 C491.184,92.16 492.104,86.32 492.934,80.46 C493.954,75.8 488.694,72.96 484.894,72.09 C476.444,70.83 467.534,71.21 459.464,74.2 C450.684,77.47 441.744,80.29 433.074,83.84 C425.824,86.6 419.274,90.84 412.174,93.91 C402.974,97.86 394.284,102.87 385.084,106.81 C375.874,110.73 367.184,115.75 357.974,119.66 C349.864,123.1 342.204,127.52 334.044,130.86 C323.144,135.45 312.684,141.01 301.764,145.57 C294.854,148.48 288.254,152.08 281.334,154.96 C274.744,157.73 268.094,160.35 261.664,163.47 C250.734,168.8 239.184,172.71 228.214,177.93 C220.094,181.78 211.504,184.5 203.324,188.2 C192.104,193.35 180.194,196.79 168.874,201.71 C163.854,203.96 158.914,206.37 153.824,208.46 C145.514,211.76 138.144,216.89 130.224,220.95 C119.984,226.62 110.634,233.85 102.074,241.8 C95.204,247.95 88.674,254.63 83.704,262.44 C79.734,268.58 75.644,274.65 72.104,281.05 C71.494,272.65 74.454,264.63 78.774,257.57 C82.654,250.39 87.524,243.82 93.104,237.87 C104.294,224.33 119.204,214.54 134.504,206.23 C143.624,200.5 153.184,195.54 162.554,190.24 C169.764,185.64 177.554,182.05 184.874,177.63 C193.494,172.44 202.674,168.27 211.314,163.1 C218.784,158.59 226.894,155.33 234.574,151.23 C240.374,147.85 246.564,145.26 252.624,142.39 C257.394,141.9 261.944,140.26 265.794,137.36 C275.434,133.11 285.354,129.42 294.614,124.33 C300.934,120.78 307.824,118.36 314.154,114.82 C324.114,109.15 334.834,105.01 345.004,99.73 C352.584,95.69 360.724,92.87 368.464,89.17 C373.784,86.6 379.704,85.2 384.444,81.52 C391.984,82.89 400.194,84.33 407.524,81.29 C410.864,80.09 410.964,76.29 411.304,73.32 C421.994,70.18 432.814,67.48 443.754,65.33 C451.134,63.52 458.494,61.52 466.104,60.84 z" fill-opacity="0" stroke="#FFAE3E" stroke-width="0.5"/>
      </g>
      <g>
        <path d="M403.514,59.82 C404.734,60.57 405.984,61.3 407.254,62.03 C408.224,65.91 409.454,69.74 411.304,73.32 C410.964,76.29 410.864,80.09 407.524,81.29 C400.194,84.33 391.984,82.89 384.444,81.52 C378.954,80.48 373.354,80.3 367.804,80.44 C371.314,78.98 374.644,77.07 378.284,75.87 C384.804,76.7 391.434,77.2 398.004,76.5 C400.944,76.19 403.524,74.19 404.964,71.67 C406.504,67.78 404.374,63.64 403.514,59.82 z" fill="#E89E3A"/>
        <path d="M403.514,59.82 C404.734,60.57 405.984,61.3 407.254,62.03 C408.224,65.91 409.454,69.74 411.304,73.32 C410.964,76.29 410.864,80.09 407.524,81.29 C400.194,84.33 391.984,82.89 384.444,81.52 C378.954,80.48 373.354,80.3 367.804,80.44 C371.314,78.98 374.644,77.07 378.284,75.87 C384.804,76.7 391.434,77.2 398.004,76.5 C400.944,76.19 403.524,74.19 404.964,71.67 C406.504,67.78 404.374,63.64 403.514,59.82 z" fill-opacity="0" stroke="#E89E3A" stroke-width="0.5"/>
      </g>
      <g>
        <path d="M372.794,67.13 C376.394,65.92 380.124,64.01 384.044,64.73 C386.744,65.2 389.514,65.77 391.944,67.16 C393.034,70.79 387.924,72.24 385.124,72.13 C380.704,72.2 373.494,73.16 372.794,67.13 z" fill="#FFFD67"/>
        <path d="M372.794,67.13 C376.394,65.92 380.124,64.01 384.044,64.73 C386.744,65.2 389.514,65.77 391.944,67.16 C393.034,70.79 387.924,72.24 385.124,72.13 C380.704,72.2 373.494,73.16 372.794,67.13 z" fill-opacity="0" stroke="#FFFD67" stroke-width="0.5"/>
      </g>
      <g>
        <path d="M286.604,71.34 C290.004,69.9 293.574,68.75 296.694,66.7 C296.904,70.46 297.194,74.22 297.614,77.97 C291.814,80.09 286.064,82.38 280.554,85.15 C273.964,84.01 267.264,83.82 260.624,83.34 C263.824,80.93 267.564,79.45 271.294,78.03 C276.494,76.05 281.414,73.38 286.604,71.34 z" fill="#D52601"/>
        <path d="M286.604,71.34 C290.004,69.9 293.574,68.75 296.694,66.7 C296.904,70.46 297.194,74.22 297.614,77.97 C291.814,80.09 286.064,82.38 280.554,85.15 C273.964,84.01 267.264,83.82 260.624,83.34 C263.824,80.93 267.564,79.45 271.294,78.03 C276.494,76.05 281.414,73.38 286.604,71.34 z" fill-opacity="0" stroke="#D52601" stroke-width="0.5"/>
      </g>
      <g>
        <path d="M316.814,72.28 C324.874,71.05 332.984,72.24 341.054,72.74 C346.334,73.19 351.704,72.85 356.934,74.02 C363.954,75.47 371.194,74.82 378.284,75.87 C374.644,77.07 371.314,78.98 367.804,80.44 C366.304,80.96 364.844,81.52 363.424,82.16 C359.534,80.43 355.304,79.67 351.074,79.66 C345.514,79.6 340.014,78.87 334.524,78.21 C329.604,77.61 324.694,78.45 319.884,79.38 C318.264,77.3 317.304,74.84 316.814,72.28 z" fill="#9D0403"/>
        <path d="M316.814,72.28 C324.874,71.05 332.984,72.24 341.054,72.74 C346.334,73.19 351.704,72.85 356.934,74.02 C363.954,75.47 371.194,74.82 378.284,75.87 C374.644,77.07 371.314,78.98 367.804,80.44 C366.304,80.96 364.844,81.52 363.424,82.16 C359.534,80.43 355.304,79.67 351.074,79.66 C345.514,79.6 340.014,78.87 334.524,78.21 C329.604,77.61 324.694,78.45 319.884,79.38 C318.264,77.3 317.304,74.84 316.814,72.28 z" fill-opacity="0" stroke="#9D0403" stroke-width="0.5"/>
      </g>
      <g>
        <path d="M459.464,74.2 C467.534,71.21 476.444,70.83 484.894,72.09 C488.694,72.96 493.954,75.8 492.934,80.46 C492.104,86.32 491.184,92.16 490.504,98.04 C488.774,107.81 484.194,116.79 479.584,125.48 C476.984,129.44 474.034,133.15 471.234,136.97 C468.334,141.03 464.364,144.11 460.914,147.66 C454.754,154.91 445.904,159.05 437.644,163.39 C428.914,168.41 419.344,171.71 410.364,176.19 C401.474,181.64 391.334,184.65 382.464,190.14 C374.204,193.86 365.884,197.51 357.794,201.59 C349.484,206.7 339.884,209.21 331.604,214.37 C327.554,216.53 323.354,218.39 319.164,220.23 C314.334,222.15 312.784,215.04 308.114,215.84 C305.054,215.7 299.484,217.15 301.234,221.29 C303.504,222.83 306.124,223.8 308.714,224.76 C300.634,229.62 291.864,233.15 283.394,237.23 C280.014,239.05 276.684,240.94 273.124,242.39 C270.774,240.16 268.604,237.59 265.644,236.18 C263.144,235.38 260.474,235.96 257.944,236.08 C257.974,240.21 261.174,242.8 264.164,245.12 C263.514,245.76 262.864,246.41 262.234,247.07 C258.974,249.34 255.124,250.51 251.714,252.49 C244.984,256.39 237.634,258.99 230.744,262.54 C220.534,267.88 209.964,272.46 199.554,277.37 C199.384,273.81 199.754,270.25 199.824,266.71 C195.574,267.13 191.714,270.05 190.604,274.24 C190.294,276.6 190.824,278.96 191.114,281.32 C181.194,286.28 171.414,291.53 161.234,295.96 C157.964,297.22 154.974,299.8 151.444,299.99 C148.574,298.33 145.934,296.17 142.744,295.16 C139.754,294.19 137.194,296.61 134.744,297.9 C136.174,301.17 139.254,302.79 142.634,303.47 C141.524,304.36 140.424,305.27 139.324,306.16 C134.274,309.46 128.354,311.41 122.434,312.39 C112.234,313.09 102.164,310.62 92.614,307.27 C86.234,304.98 80.694,300.71 76.234,295.68 C73.064,292.14 71.974,287.34 71.664,282.74 C71.774,282.31 71.994,281.47 72.104,281.05 C75.644,274.65 79.734,268.58 83.704,262.44 C88.674,254.63 95.204,247.95 102.074,241.8 C110.634,233.85 119.984,226.62 130.224,220.95 C138.144,216.89 145.514,211.76 153.824,208.46 C158.914,206.37 163.854,203.96 168.874,201.71 C180.194,196.79 192.104,193.35 203.324,188.2 C211.504,184.5 220.094,181.78 228.214,177.93 C239.184,172.71 250.734,168.8 261.664,163.47 C268.094,160.35 274.744,157.73 281.334,154.96 C288.254,152.08 294.854,148.48 301.764,145.57 C312.684,141.01 323.144,135.45 334.044,130.86 C342.204,127.52 349.864,123.1 357.974,119.66 C367.184,115.75 375.874,110.73 385.084,106.81 C394.284,102.87 402.974,97.86 412.174,93.91 C419.274,90.84 425.824,86.6 433.074,83.84 C441.744,80.29 450.684,77.47 459.464,74.2 M448.964,113.98 C450.874,111.37 452.724,108.32 452.034,104.93 C451.944,102.18 449.904,100.22 448.134,98.4 C442.104,101.36 442.634,111.65 448.964,113.98 M469.734,105.5 C468.364,107.17 468.954,110.06 471.034,110.88 C474.874,112.72 479.274,111.82 483.194,110.66 C482.924,109.28 482.794,107.89 482.334,106.59 C478.714,104.27 473.624,103.34 469.734,105.5 M390.304,111.02 C387.754,113.37 391.094,116.49 393.184,117.77 C396.104,120.1 399.934,119.99 403.274,118.66 C402.834,116.16 402.364,113.34 400.004,111.92 C397.274,110.06 392.944,107.85 390.304,111.02 M417.404,129.01 C415.864,134.5 419.094,142.45 425.734,141.73 C426.334,137.89 426.624,133.33 423.404,130.52 C421.924,128.68 419.454,129.11 417.404,129.01 M450.064,136.83 C446.884,139.38 445.114,143.43 445.274,147.5 C448.224,147.8 451.614,147.97 453.844,145.59 C456.754,143.19 457.164,139.17 456.054,135.77 C454.044,136.02 451.844,135.77 450.064,136.83 M338.474,147.15 C337.304,147.61 336.304,148.7 336.304,150.01 C335.964,154.33 338.934,158.79 343.254,159.75 C344.784,159.99 347.074,159.64 346.934,157.6 C347.364,152.93 343.804,146.45 338.474,147.15 M373.004,151.9 C372.954,153.48 371.894,155.36 373.104,156.76 C376.444,160.23 381.744,161.69 386.264,159.69 C385.834,157.66 385.754,155.27 383.884,154 C380.944,151.24 376.674,151.82 373.004,151.9 M306.624,160.98 C306.954,163.81 308.294,166.57 310.274,168.64 C311.994,170.52 314.694,169.54 316.914,169.54 C317.044,165.44 315.804,160.97 312.424,158.41 C310.194,156.79 306.774,158.16 306.624,160.98 M409.374,159.32 C406.904,159.53 405.154,162.21 406.194,164.54 C408.504,168.71 414.214,169.96 418.404,168.1 C420.764,166.75 419.654,163.41 417.694,162.29 C415.174,160.75 412.344,159.42 409.374,159.32 M269.354,176.14 C269.374,178.79 271.324,180.98 273.274,182.59 C276.054,184.8 279.784,183.71 282.994,183.41 C282.424,180.11 280.974,176.63 277.734,175.19 C275.104,173.88 271.004,172.88 269.354,176.14 M370.534,179.27 C366.044,181.08 363.584,186.74 365.804,191.14 C367.204,193.39 370.674,192.83 372.114,190.91 C373.784,188.58 374.764,185.74 374.924,182.89 C375.284,180.61 372.724,178.22 370.534,179.27 M216.754,189.46 C213.204,190.2 213.254,195.3 216.214,196.72 C220.224,198.29 225.714,198.87 228.514,194.87 C226.044,191.1 221.254,188.52 216.754,189.46 M322.994,194.84 C322.304,200.99 328.184,207.48 334.524,205.24 C336.714,198.84 329.114,192.33 322.994,194.84 M170.314,211.05 C168.584,212.83 169.394,215.43 169.384,217.63 C174.134,218.1 179.834,215.71 180.934,210.65 C181.654,208.43 179.654,205.53 177.244,206.11 C174.494,206.98 172.164,208.89 170.314,211.05 M265.944,209.04 C268.384,213.94 274.644,215.12 279.384,213.1 C281.094,211.99 281.644,209.37 279.884,208.04 C275.944,204.56 269.354,205.03 265.944,209.04 M200.774,224.52 C198.744,228.1 199.284,232.99 201.754,236.21 C203.314,238.29 205.914,237.32 207.994,236.83 C207.974,233.34 208.854,229.33 206.544,226.35 C205.284,224.65 202.764,223 200.774,224.52 M237.214,240.91 C232.514,242.8 230.794,249.87 234.874,253.2 C237.114,251.65 239.624,250.28 241.204,247.98 C242.684,245.92 242.774,243.29 243.164,240.88 C241.194,240.56 239.064,239.79 237.214,240.91 M143.584,242.28 C141.064,244.16 143.654,247.12 145.294,248.62 C148.144,251.41 152.354,250.87 155.974,250.47 C155.714,248.26 155.864,245.55 153.674,244.26 C150.844,242.42 146.824,240.1 143.584,242.28 M105.434,280.13 C100.664,282.26 99.704,289.84 103.844,293.11 C105.224,294.22 107.784,294.16 108.704,292.45 C110.454,289.5 111.834,285.42 109.634,282.33 C108.704,280.98 107.234,279.04 105.434,280.13 z" fill="#E67C14"/>
        <path d="M459.464,74.2 C467.534,71.21 476.444,70.83 484.894,72.09 C488.694,72.96 493.954,75.8 492.934,80.46 C492.104,86.32 491.184,92.16 490.504,98.04 C488.774,107.81 484.194,116.79 479.584,125.48 C476.984,129.44 474.034,133.15 471.234,136.97 C468.334,141.03 464.364,144.11 460.914,147.66 C454.754,154.91 445.904,159.05 437.644,163.39 C428.914,168.41 419.344,171.71 410.364,176.19 C401.474,181.64 391.334,184.65 382.464,190.14 C374.204,193.86 365.884,197.51 357.794,201.59 C349.484,206.7 339.884,209.21 331.604,214.37 C327.554,216.53 323.354,218.39 319.164,220.23 C314.334,222.15 312.784,215.04 308.114,215.84 C305.054,215.7 299.484,217.15 301.234,221.29 C303.504,222.83 306.124,223.8 308.714,224.76 C300.634,229.62 291.864,233.15 283.394,237.23 C280.014,239.05 276.684,240.94 273.124,242.39 C270.774,240.16 268.604,237.59 265.644,236.18 C263.144,235.38 260.474,235.96 257.944,236.08 C257.974,240.21 261.174,242.8 264.164,245.12 C263.514,245.76 262.864,246.41 262.234,247.07 C258.974,249.34 255.124,250.51 251.714,252.49 C244.984,256.39 237.634,258.99 230.744,262.54 C220.534,267.88 209.964,272.46 199.554,277.37 C199.384,273.81 199.754,270.25 199.824,266.71 C195.574,267.13 191.714,270.05 190.604,274.24 C190.294,276.6 190.824,278.96 191.114,281.32 C181.194,286.28 171.414,291.53 161.234,295.96 C157.964,297.22 154.974,299.8 151.444,299.99 C148.574,298.33 145.934,296.17 142.744,295.16 C139.754,294.19 137.194,296.61 134.744,297.9 C136.174,301.17 139.254,302.79 142.634,303.47 C141.524,304.36 140.424,305.27 139.324,306.16 C134.274,309.46 128.354,311.41 122.434,312.39 C112.234,313.09 102.164,310.62 92.614,307.27 C86.234,304.98 80.694,300.71 76.234,295.68 C73.064,292.14 71.974,287.34 71.664,282.74 C71.774,282.31 71.994,281.47 72.104,281.05 C75.644,274.65 79.734,268.58 83.704,262.44 C88.674,254.63 95.204,247.95 102.074,241.8 C110.634,233.85 119.984,226.62 130.224,220.95 C138.144,216.89 145.514,211.76 153.824,208.46 C158.914,206.37 163.854,203.96 168.874,201.71 C180.194,196.79 192.104,193.35 203.324,188.2 C211.504,184.5 220.094,181.78 228.214,177.93 C239.184,172.71 250.734,168.8 261.664,163.47 C268.094,160.35 274.744,157.73 281.334,154.96 C288.254,152.08 294.854,148.48 301.764,145.57 C312.684,141.01 323.144,135.45 334.044,130.86 C342.204,127.52 349.864,123.1 357.974,119.66 C367.184,115.75 375.874,110.73 385.084,106.81 C394.284,102.87 402.974,97.86 412.174,93.91 C419.274,90.84 425.824,86.6 433.074,83.84 C441.744,80.29 450.684,77.47 459.464,74.2 M448.964,113.98 C450.874,111.37 452.724,108.32 452.034,104.93 C451.944,102.18 449.904,100.22 448.134,98.4 C442.104,101.36 442.634,111.65 448.964,113.98 M469.734,105.5 C468.364,107.17 468.954,110.06 471.034,110.88 C474.874,112.72 479.274,111.82 483.194,110.66 C482.924,109.28 482.794,107.89 482.334,106.59 C478.714,104.27 473.624,103.34 469.734,105.5 M390.304,111.02 C387.754,113.37 391.094,116.49 393.184,117.77 C396.104,120.1 399.934,119.99 403.274,118.66 C402.834,116.16 402.364,113.34 400.004,111.92 C397.274,110.06 392.944,107.85 390.304,111.02 M417.404,129.01 C415.864,134.5 419.094,142.45 425.734,141.73 C426.334,137.89 426.624,133.33 423.404,130.52 C421.924,128.68 419.454,129.11 417.404,129.01 M450.064,136.83 C446.884,139.38 445.114,143.43 445.274,147.5 C448.224,147.8 451.614,147.97 453.844,145.59 C456.754,143.19 457.164,139.17 456.054,135.77 C454.044,136.02 451.844,135.77 450.064,136.83 M338.474,147.15 C337.304,147.61 336.304,148.7 336.304,150.01 C335.964,154.33 338.934,158.79 343.254,159.75 C344.784,159.99 347.074,159.64 346.934,157.6 C347.364,152.93 343.804,146.45 338.474,147.15 M373.004,151.9 C372.954,153.48 371.894,155.36 373.104,156.76 C376.444,160.23 381.744,161.69 386.264,159.69 C385.834,157.66 385.754,155.27 383.884,154 C380.944,151.24 376.674,151.82 373.004,151.9 M306.624,160.98 C306.954,163.81 308.294,166.57 310.274,168.64 C311.994,170.52 314.694,169.54 316.914,169.54 C317.044,165.44 315.804,160.97 312.424,158.41 C310.194,156.79 306.774,158.16 306.624,160.98 M409.374,159.32 C406.904,159.53 405.154,162.21 406.194,164.54 C408.504,168.71 414.214,169.96 418.404,168.1 C420.764,166.75 419.654,163.41 417.694,162.29 C415.174,160.75 412.344,159.42 409.374,159.32 M269.354,176.14 C269.374,178.79 271.324,180.98 273.274,182.59 C276.054,184.8 279.784,183.71 282.994,183.41 C282.424,180.11 280.974,176.63 277.734,175.19 C275.104,173.88 271.004,172.88 269.354,176.14 M370.534,179.27 C366.044,181.08 363.584,186.74 365.804,191.14 C367.204,193.39 370.674,192.83 372.114,190.91 C373.784,188.58 374.764,185.74 374.924,182.89 C375.284,180.61 372.724,178.22 370.534,179.27 M216.754,189.46 C213.204,190.2 213.254,195.3 216.214,196.72 C220.224,198.29 225.714,198.87 228.514,194.87 C226.044,191.1 221.254,188.52 216.754,189.46 M322.994,194.84 C322.304,200.99 328.184,207.48 334.524,205.24 C336.714,198.84 329.114,192.33 322.994,194.84 M170.314,211.05 C168.584,212.83 169.394,215.43 169.384,217.63 C174.134,218.1 179.834,215.71 180.934,210.65 C181.654,208.43 179.654,205.53 177.244,206.11 C174.494,206.98 172.164,208.89 170.314,211.05 M265.944,209.04 C268.384,213.94 274.644,215.12 279.384,213.1 C281.094,211.99 281.644,209.37 279.884,208.04 C275.944,204.56 269.354,205.03 265.944,209.04 M200.774,224.52 C198.744,228.1 199.284,232.99 201.754,236.21 C203.314,238.29 205.914,237.32 207.994,236.83 C207.974,233.34 208.854,229.33 206.544,226.35 C205.284,224.65 202.764,223 200.774,224.52 M237.214,240.91 C232.514,242.8 230.794,249.87 234.874,253.2 C237.114,251.65 239.624,250.28 241.204,247.98 C242.684,245.92 242.774,243.29 243.164,240.88 C241.194,240.56 239.064,239.79 237.214,240.91 M143.584,242.28 C141.064,244.16 143.654,247.12 145.294,248.62 C148.144,251.41 152.354,250.87 155.974,250.47 C155.714,248.26 155.864,245.55 153.674,244.26 C150.844,242.42 146.824,240.1 143.584,242.28 M105.434,280.13 C100.664,282.26 99.704,289.84 103.844,293.11 C105.224,294.22 107.784,294.16 108.704,292.45 C110.454,289.5 111.834,285.42 109.634,282.33 C108.704,280.98 107.234,279.04 105.434,280.13 z" fill-opacity="0" stroke="#E67C14" stroke-width="0.5"/>
      </g>
      <g>
        <path d="M280.554,85.15 C286.064,82.38 291.814,80.09 297.614,77.97 C300.914,81.71 304.524,85.17 308.154,88.59 C299.224,85.76 289.774,86.03 280.554,85.15 z" fill="#AD0504"/>
        <path d="M280.554,85.15 C286.064,82.38 291.814,80.09 297.614,77.97 C300.914,81.71 304.524,85.17 308.154,88.59 C299.224,85.76 289.774,86.03 280.554,85.15 z" fill-opacity="0" stroke="#AD0504" stroke-width="0.5"/>
      </g>
      <g>
        <path d="M319.884,79.38 C324.694,78.45 329.604,77.61 334.524,78.21 C340.014,78.87 345.514,79.6 351.074,79.66 C355.304,79.67 359.534,80.43 363.424,82.16 C352.904,87.33 342.234,92.15 331.524,96.89 C329.484,91.76 326.764,86.88 322.884,82.92 C321.874,81.73 320.834,80.58 319.884,79.38 z" fill="#AE0604"/>
        <path d="M319.884,79.38 C324.694,78.45 329.604,77.61 334.524,78.21 C340.014,78.87 345.514,79.6 351.074,79.66 C355.304,79.67 359.534,80.43 363.424,82.16 C352.904,87.33 342.234,92.15 331.524,96.89 C329.484,91.76 326.764,86.88 322.884,82.92 C321.874,81.73 320.834,80.58 319.884,79.38 z" fill-opacity="0" stroke="#AE0604" stroke-width="0.5"/>
      </g>
      <g>
        <path d="M363.424,82.16 C364.844,81.52 366.304,80.96 367.804,80.44 C373.354,80.3 378.954,80.48 384.444,81.52 C379.704,85.2 373.784,86.6 368.464,89.17 C360.724,92.87 352.584,95.69 345.004,99.73 C334.834,105.01 324.114,109.15 314.154,114.82 C307.824,118.36 300.934,120.78 294.614,124.33 C285.354,129.42 275.434,133.11 265.794,137.36 C265.044,134.06 264.344,130.78 263.634,127.49 C270.604,124.6 277.244,120.95 284.294,118.22 C291.184,115.52 297.644,111.89 304.414,108.93 C313.714,105.55 322.674,101.32 331.524,96.89 C342.234,92.15 352.904,87.33 363.424,82.16 z" fill="#FFCA56"/>
        <path d="M363.424,82.16 C364.844,81.52 366.304,80.96 367.804,80.44 C373.354,80.3 378.954,80.48 384.444,81.52 C379.704,85.2 373.784,86.6 368.464,89.17 C360.724,92.87 352.584,95.69 345.004,99.73 C334.834,105.01 324.114,109.15 314.154,114.82 C307.824,118.36 300.934,120.78 294.614,124.33 C285.354,129.42 275.434,133.11 265.794,137.36 C265.044,134.06 264.344,130.78 263.634,127.49 C270.604,124.6 277.244,120.95 284.294,118.22 C291.184,115.52 297.644,111.89 304.414,108.93 C313.714,105.55 322.674,101.32 331.524,96.89 C342.234,92.15 352.904,87.33 363.424,82.16 z" fill-opacity="0" stroke="#FFCA56" stroke-width="0.5"/>
      </g>
      <g>
        <path d="M322.884,82.92 C326.764,86.88 329.484,91.76 331.524,96.89 C322.674,101.32 313.714,105.55 304.414,108.93 C294.004,107.51 283.704,105.44 273.254,104.39 C263.024,102.47 251.714,100.97 242.284,106.5 C239.944,104.63 237.744,102.6 235.594,100.54 C237.364,99.54 239.124,98.39 241.174,98 C252.154,95.83 263.474,96.82 274.414,98.8 C286.094,101.51 298.394,103.52 310.274,100.92 C315.254,99.02 321.224,97.79 324.434,93.14 C325.724,89.72 324.044,86.12 322.884,82.92 z" fill="#9D0503"/>
        <path d="M322.884,82.92 C326.764,86.88 329.484,91.76 331.524,96.89 C322.674,101.32 313.714,105.55 304.414,108.93 C294.004,107.51 283.704,105.44 273.254,104.39 C263.024,102.47 251.714,100.97 242.284,106.5 C239.944,104.63 237.744,102.6 235.594,100.54 C237.364,99.54 239.124,98.39 241.174,98 C252.154,95.83 263.474,96.82 274.414,98.8 C286.094,101.51 298.394,103.52 310.274,100.92 C315.254,99.02 321.224,97.79 324.434,93.14 C325.724,89.72 324.044,86.12 322.884,82.92 z" fill-opacity="0" stroke="#9D0503" stroke-width="0.5"/>
      </g>
      <g>
        <path d="M228.304,92.13 C235.004,88.55 242.394,85.51 250.164,86.93 C250.004,88.06 249.864,89.2 249.754,90.35 C242.974,93.39 235.624,95.24 228.154,94.72 C228.194,94.07 228.264,92.77 228.304,92.13 z" fill="#FFFD67"/>
        <path d="M228.304,92.13 C235.004,88.55 242.394,85.51 250.164,86.93 C250.004,88.06 249.864,89.2 249.754,90.35 C242.974,93.39 235.624,95.24 228.154,94.72 C228.194,94.07 228.264,92.77 228.304,92.13 z" fill-opacity="0" stroke="#FFFD67" stroke-width="0.5"/>
      </g>
      <g>
        <path d="M290.884,95.73 C294.424,90.41 301.464,91.09 307.004,91.85 C309.584,92.01 310.724,94.44 311.424,96.59 C310.294,97.04 309.174,97.45 308.064,97.84 C303.724,98.16 299.364,98.15 295.034,97.92 C293.574,97.3 292.224,96.49 290.884,95.73 z" fill="#FFFD67"/>
        <path d="M290.884,95.73 C294.424,90.41 301.464,91.09 307.004,91.85 C309.584,92.01 310.724,94.44 311.424,96.59 C310.294,97.04 309.174,97.45 308.064,97.84 C303.724,98.16 299.364,98.15 295.034,97.92 C293.574,97.3 292.224,96.49 290.884,95.73 z" fill-opacity="0" stroke="#FFFD67" stroke-width="0.5"/>
      </g>
      <g>
        <path d="M295.034,97.92 C299.364,98.15 303.724,98.16 308.064,97.84 C304.634,101.67 298.574,101.46 295.034,97.92 z" fill="#FFF129"/>
        <path d="M295.034,97.92 C299.364,98.15 303.724,98.16 308.064,97.84 C304.634,101.67 298.574,101.46 295.034,97.92 z" fill-opacity="0" stroke="#FFF129" stroke-width="0.5"/>
      </g>
      <g>
        <path d="M448.964,113.98 C442.634,111.65 442.104,101.36 448.134,98.4 C449.904,100.22 451.944,102.18 452.034,104.93 C452.724,108.32 450.874,111.37 448.964,113.98 z" fill="#F29428"/>
        <path d="M448.964,113.98 C442.634,111.65 442.104,101.36 448.134,98.4 C449.904,100.22 451.944,102.18 452.034,104.93 C452.724,108.32 450.874,111.37 448.964,113.98 z" fill-opacity="0" stroke="#F29428" stroke-width="0.5"/>
      </g>
      <g>
        <path d="M194.584,110.28 C201.474,107.36 208.664,105.09 215.204,101.39 C217.804,103.26 220.184,105.42 222.504,107.66 C212.664,110.03 202.634,113.08 194.344,119.06 C188.414,118.88 182.494,118.73 176.574,118.61 C182.474,115.62 188.424,112.71 194.584,110.28 z" fill="#D52502"/>
        <path d="M194.584,110.28 C201.474,107.36 208.664,105.09 215.204,101.39 C217.804,103.26 220.184,105.42 222.504,107.66 C212.664,110.03 202.634,113.08 194.344,119.06 C188.414,118.88 182.494,118.73 176.574,118.61 C182.474,115.62 188.424,112.71 194.584,110.28 z" fill-opacity="0" stroke="#D52502" stroke-width="0.5"/>
      </g>
      <g>
        <path d="M242.284,106.5 C251.714,100.97 263.024,102.47 273.254,104.39 C283.704,105.44 294.004,107.51 304.414,108.93 C297.644,111.89 291.184,115.52 284.294,118.22 C277.244,120.95 270.604,124.6 263.634,127.49 C263.124,127.69 262.114,128.08 261.614,128.28 C257.104,119.52 249.474,112.99 242.284,106.5 z" fill="#AE0604"/>
        <path d="M242.284,106.5 C251.714,100.97 263.024,102.47 273.254,104.39 C283.704,105.44 294.004,107.51 304.414,108.93 C297.644,111.89 291.184,115.52 284.294,118.22 C277.244,120.95 270.604,124.6 263.634,127.49 C263.124,127.69 262.114,128.08 261.614,128.28 C257.104,119.52 249.474,112.99 242.284,106.5 z" fill-opacity="0" stroke="#AE0604" stroke-width="0.5"/>
      </g>
      <g>
        <path d="M469.734,105.5 C473.624,103.34 478.714,104.27 482.334,106.59 C482.794,107.89 482.924,109.28 483.194,110.66 C479.274,111.82 474.874,112.72 471.034,110.88 C468.954,110.06 468.364,107.17 469.734,105.5 z" fill="#F39529"/>
        <path d="M469.734,105.5 C473.624,103.34 478.714,104.27 482.334,106.59 C482.794,107.89 482.924,109.28 483.194,110.66 C479.274,111.82 474.874,112.72 471.034,110.88 C468.954,110.06 468.364,107.17 469.734,105.5 z" fill-opacity="0" stroke="#F39529" stroke-width="0.5"/>
      </g>
      <g>
        <path d="M194.344,119.06 C202.634,113.08 212.664,110.03 222.504,107.66 C222.834,107.97 223.504,108.59 223.844,108.91 C219.384,113.9 212.874,116.02 207.694,120.05 C203.214,120.03 198.764,119.67 194.344,119.06 z" fill="#FE925A"/>
        <path d="M194.344,119.06 C202.634,113.08 212.664,110.03 222.504,107.66 C222.834,107.97 223.504,108.59 223.844,108.91 C219.384,113.9 212.874,116.02 207.694,120.05 C203.214,120.03 198.764,119.67 194.344,119.06 z" fill-opacity="0" stroke="#FE925A" stroke-width="0.5"/>
      </g>
      <g>
        <path d="M223.844,108.91 C228.234,113.46 233.564,117.05 237.554,122 C227.584,122.06 217.504,121.98 207.694,120.05 C212.874,116.02 219.384,113.9 223.844,108.91 z" fill="#AD0604"/>
        <path d="M223.844,108.91 C228.234,113.46 233.564,117.05 237.554,122 C227.584,122.06 217.504,121.98 207.694,120.05 C212.874,116.02 219.384,113.9 223.844,108.91 z" fill-opacity="0" stroke="#AD0604" stroke-width="0.5"/>
      </g>
      <g>
        <path d="M390.304,111.02 C392.944,107.85 397.274,110.06 400.004,111.92 C402.364,113.34 402.834,116.16 403.274,118.66 C399.934,119.99 396.104,120.1 393.184,117.77 C391.094,116.49 387.754,113.37 390.304,111.02 z" fill="#F39428"/>
        <path d="M390.304,111.02 C392.944,107.85 397.274,110.06 400.004,111.92 C402.364,113.34 402.834,116.16 403.274,118.66 C399.934,119.99 396.104,120.1 393.184,117.77 C391.094,116.49 387.754,113.37 390.304,111.02 z" fill-opacity="0" stroke="#F39428" stroke-width="0.5"/>
      </g>
      <g>
        <path d="M163.154,123.82 C167.364,122.24 171.954,122.46 176.344,123.08 C175.104,124.49 173.914,126.13 172.004,126.65 C165.774,128.66 159.244,130.8 152.614,129.57 C155.274,126.38 159.414,125.25 163.154,123.82 z" fill="#FFFC67"/>
        <path d="M163.154,123.82 C167.364,122.24 171.954,122.46 176.344,123.08 C175.104,124.49 173.914,126.13 172.004,126.65 C165.774,128.66 159.244,130.8 152.614,129.57 C155.274,126.38 159.414,125.25 163.154,123.82 z" fill-opacity="0" stroke="#FFFC67" stroke-width="0.5"/>
      </g>
      <g>
        <path d="M231.044,128.81 C232.854,127.22 234.424,124.86 237.044,124.66 C240.874,124.33 244.904,124.12 248.634,125.32 C250.564,125.88 250.914,127.97 251.574,129.62 C248.294,131.24 244.844,132.98 241.084,132.73 C237.314,132.88 234.084,130.72 231.044,128.81 z" fill="#FFFD66"/>
        <path d="M231.044,128.81 C232.854,127.22 234.424,124.86 237.044,124.66 C240.874,124.33 244.904,124.12 248.634,125.32 C250.564,125.88 250.914,127.97 251.574,129.62 C248.294,131.24 244.844,132.98 241.084,132.73 C237.314,132.88 234.084,130.72 231.044,128.81 z" fill-opacity="0" stroke="#FFFD66" stroke-width="0.5"/>
      </g>
      <g>
        <path d="M261.614,128.28 C262.114,128.08 263.124,127.69 263.634,127.49 C264.344,130.78 265.044,134.06 265.794,137.36 C261.944,140.26 257.394,141.9 252.624,142.39 C245.734,141.97 238.844,141.58 231.954,141.65 C235.564,140.21 238.774,137.99 242.154,136.1 C246.434,135.78 250.824,135.92 254.984,134.69 C258.084,133.72 259.704,130.66 261.614,128.28 z" fill="#E8AD45"/>
        <path d="M261.614,128.28 C262.114,128.08 263.124,127.69 263.634,127.49 C264.344,130.78 265.044,134.06 265.794,137.36 C261.944,140.26 257.394,141.9 252.624,142.39 C245.734,141.97 238.844,141.58 231.954,141.65 C235.564,140.21 238.774,137.99 242.154,136.1 C246.434,135.78 250.824,135.92 254.984,134.69 C258.084,133.72 259.704,130.66 261.614,128.28 z" fill-opacity="0" stroke="#E8AD45" stroke-width="0.5"/>
      </g>
      <g>
        <path d="M417.404,129.01 C419.454,129.11 421.924,128.68 423.404,130.52 C426.624,133.33 426.334,137.89 425.734,141.73 C419.094,142.45 415.864,134.5 417.404,129.01 z" fill="#F39529"/>
        <path d="M417.404,129.01 C419.454,129.11 421.924,128.68 423.404,130.52 C426.624,133.33 426.334,137.89 425.734,141.73 C419.094,142.45 415.864,134.5 417.404,129.01 z" fill-opacity="0" stroke="#F39529" stroke-width="0.5"/>
      </g>
      <g>
        <path d="M123.144,141.44 C128.934,137.8 135.454,135.63 141.544,132.6 C143.124,135.69 144.664,138.86 146.894,141.56 C144.094,142.87 141.334,144.27 138.644,145.78 C133.514,144.21 128.394,142.54 123.144,141.44 z" fill="#D52601"/>
        <path d="M123.144,141.44 C128.934,137.8 135.454,135.63 141.544,132.6 C143.124,135.69 144.664,138.86 146.894,141.56 C144.094,142.87 141.334,144.27 138.644,145.78 C133.514,144.21 128.394,142.54 123.144,141.44 z" fill-opacity="0" stroke="#D52601" stroke-width="0.5"/>
      </g>
      <g>
        <path d="M161.144,136.1 C171.584,131.9 183.054,132.56 194.074,132.68 C203.844,133.24 213.644,133.74 223.314,135.32 C229.574,135.79 235.874,135.71 242.154,136.1 C238.774,137.99 235.564,140.21 231.954,141.65 C230.164,142.27 228.404,142.93 226.664,143.63 C224.694,142.26 222.564,141 220.124,140.88 C212.764,140.21 205.494,138.52 198.084,138.73 C187.514,138.76 176.184,137.87 166.664,143.39 C164.654,141.08 162.874,138.6 161.144,136.1 z" fill="#9D0503"/>
        <path d="M161.144,136.1 C171.584,131.9 183.054,132.56 194.074,132.68 C203.844,133.24 213.644,133.74 223.314,135.32 C229.574,135.79 235.874,135.71 242.154,136.1 C238.774,137.99 235.564,140.21 231.954,141.65 C230.164,142.27 228.404,142.93 226.664,143.63 C224.694,142.26 222.564,141 220.124,140.88 C212.764,140.21 205.494,138.52 198.084,138.73 C187.514,138.76 176.184,137.87 166.664,143.39 C164.654,141.08 162.874,138.6 161.144,136.1 z" fill-opacity="0" stroke="#9D0503" stroke-width="0.5"/>
      </g>
      <g>
        <path d="M450.064,136.83 C451.844,135.77 454.044,136.02 456.054,135.77 C457.164,139.17 456.754,143.19 453.844,145.59 C451.614,147.97 448.224,147.8 445.274,147.5 C445.114,143.43 446.884,139.38 450.064,136.83 z" fill="#F39529"/>
        <path d="M450.064,136.83 C451.844,135.77 454.044,136.02 456.054,135.77 C457.164,139.17 456.754,143.19 453.844,145.59 C451.614,147.97 448.224,147.8 445.274,147.5 C445.114,143.43 446.884,139.38 450.064,136.83 z" fill-opacity="0" stroke="#F39529" stroke-width="0.5"/>
      </g>
      <g>
        <path d="M166.664,143.39 C176.184,137.87 187.514,138.76 198.084,138.73 C205.494,138.52 212.764,140.21 220.124,140.88 C222.564,141 224.694,142.26 226.664,143.63 C217.514,147.19 208.944,152.03 199.764,155.51 C194.154,157.84 188.454,159.99 183.014,162.71 C180.804,163.78 178.604,164.87 176.324,165.76 C178.014,156.94 171.944,149.65 166.664,143.39 z" fill="#AE0604"/>
        <path d="M166.664,143.39 C176.184,137.87 187.514,138.76 198.084,138.73 C205.494,138.52 212.764,140.21 220.124,140.88 C222.564,141 224.694,142.26 226.664,143.63 C217.514,147.19 208.944,152.03 199.764,155.51 C194.154,157.84 188.454,159.99 183.014,162.71 C180.804,163.78 178.604,164.87 176.324,165.76 C178.014,156.94 171.944,149.65 166.664,143.39 z" fill-opacity="0" stroke="#AE0604" stroke-width="0.5"/>
      </g>
      <g>
        <path d="M105.114,145.18 C108.164,143.45 111.624,142.45 115.114,142.11 C119.844,141.7 124.284,143.79 128.304,146.05 C126.624,148.3 124.884,151.02 121.924,151.61 C117.734,152.26 113.414,152.26 109.254,151.55 C106.344,151.06 103.644,148.21 105.114,145.18 z" fill="#FFFD66"/>
        <path d="M105.114,145.18 C108.164,143.45 111.624,142.45 115.114,142.11 C119.844,141.7 124.284,143.79 128.304,146.05 C126.624,148.3 124.884,151.02 121.924,151.61 C117.734,152.26 113.414,152.26 109.254,151.55 C106.344,151.06 103.644,148.21 105.114,145.18 z" fill-opacity="0" stroke="#FFFD66" stroke-width="0.5"/>
      </g>
      <g>
        <path d="M138.644,145.78 C141.334,144.27 144.094,142.87 146.894,141.56 C149.714,144.94 152.644,148.26 155.104,151.94 C149.544,150.09 144.274,147.46 138.644,145.78 z" fill="#AD0704"/>
        <path d="M138.644,145.78 C141.334,144.27 144.094,142.87 146.894,141.56 C149.714,144.94 152.644,148.26 155.104,151.94 C149.544,150.09 144.274,147.46 138.644,145.78 z" fill-opacity="0" stroke="#AD0704" stroke-width="0.5"/>
      </g>
      <g>
        <path d="M226.664,143.63 C228.404,142.93 230.164,142.27 231.954,141.65 C238.844,141.58 245.734,141.97 252.624,142.39 C246.564,145.26 240.374,147.85 234.574,151.23 C226.894,155.33 218.784,158.59 211.314,163.1 C202.674,168.27 193.494,172.44 184.874,177.63 C177.554,182.05 169.764,185.64 162.554,190.24 C153.184,195.54 143.624,200.5 134.504,206.23 C119.204,214.54 104.294,224.33 93.104,237.87 C87.524,243.82 82.654,250.39 78.774,257.57 C74.454,264.63 71.494,272.65 72.104,281.05 C71.994,281.47 71.774,282.31 71.664,282.74 C69.084,288.44 64.574,293.89 58.034,294.9 C54.144,281.33 54.914,266.99 56.054,253.08 C56.124,252.53 56.264,251.41 56.334,250.85 C59.474,241.06 64.014,231.46 71.344,224.09 C75.834,219.59 80.484,215.22 85.364,211.14 C94.094,205.03 103.004,199.05 112.774,194.69 C117.714,194.8 123.074,195.09 127.414,192.24 C129.984,191.02 130.574,188.06 131.394,185.63 C141.154,181.13 150.754,176.22 160.804,172.39 C166.784,172.5 172.924,174.41 178.824,172.69 C182.884,171.24 182.634,166.23 183.014,162.71 C188.454,159.99 194.154,157.84 199.764,155.51 C208.944,152.03 217.514,147.19 226.664,143.63 z" fill="#FFCA56"/>
        <path d="M226.664,143.63 C228.404,142.93 230.164,142.27 231.954,141.65 C238.844,141.58 245.734,141.97 252.624,142.39 C246.564,145.26 240.374,147.85 234.574,151.23 C226.894,155.33 218.784,158.59 211.314,163.1 C202.674,168.27 193.494,172.44 184.874,177.63 C177.554,182.05 169.764,185.64 162.554,190.24 C153.184,195.54 143.624,200.5 134.504,206.23 C119.204,214.54 104.294,224.33 93.104,237.87 C87.524,243.82 82.654,250.39 78.774,257.57 C74.454,264.63 71.494,272.65 72.104,281.05 C71.994,281.47 71.774,282.31 71.664,282.74 C69.084,288.44 64.574,293.89 58.034,294.9 C54.144,281.33 54.914,266.99 56.054,253.08 C56.124,252.53 56.264,251.41 56.334,250.85 C59.474,241.06 64.014,231.46 71.344,224.09 C75.834,219.59 80.484,215.22 85.364,211.14 C94.094,205.03 103.004,199.05 112.774,194.69 C117.714,194.8 123.074,195.09 127.414,192.24 C129.984,191.02 130.574,188.06 131.394,185.63 C141.154,181.13 150.754,176.22 160.804,172.39 C166.784,172.5 172.924,174.41 178.824,172.69 C182.884,171.24 182.634,166.23 183.014,162.71 C188.454,159.99 194.154,157.84 199.764,155.51 C208.944,152.03 217.514,147.19 226.664,143.63 z" fill-opacity="0" stroke="#FFCA56" stroke-width="0.5"/>
      </g>
      <g>
        <path d="M338.474,147.15 C343.804,146.45 347.364,152.93 346.934,157.6 C347.074,159.64 344.784,159.99 343.254,159.75 C338.934,158.79 335.964,154.33 336.304,150.01 C336.304,148.7 337.304,147.61 338.474,147.15 z" fill="#F39529"/>
        <path d="M338.474,147.15 C343.804,146.45 347.364,152.93 346.934,157.6 C347.074,159.64 344.784,159.99 343.254,159.75 C338.934,158.79 335.964,154.33 336.304,150.01 C336.304,148.7 337.304,147.61 338.474,147.15 z" fill-opacity="0" stroke="#F39529" stroke-width="0.5"/>
      </g>
      <g>
        <path d="M373.004,151.9 C376.674,151.82 380.944,151.24 383.884,154 C385.754,155.27 385.834,157.66 386.264,159.69 C381.744,161.69 376.444,160.23 373.104,156.76 C371.894,155.36 372.954,153.48 373.004,151.9 z" fill="#F39529"/>
        <path d="M373.004,151.9 C376.674,151.82 380.944,151.24 383.884,154 C385.754,155.27 385.834,157.66 386.264,159.69 C381.744,161.69 376.444,160.23 373.104,156.76 C371.894,155.36 372.954,153.48 373.004,151.9 z" fill-opacity="0" stroke="#F39529" stroke-width="0.5"/>
      </g>
      <g>
        <path d="M64.154,165.84 C73.134,161.66 82.214,157.64 91.604,154.45 C92.054,156.27 92.514,158.1 93.084,159.92 C86.134,162.84 79.414,166.24 72.524,169.29 C68.164,171.49 62.954,173.26 60.804,178.07 C55.614,180.32 50.014,182.57 46.424,187.16 C43.234,191.13 41.984,196.15 40.134,200.79 C40.444,197.9 40.374,194.99 40.264,192.11 C39.634,191.75 38.384,191.04 37.764,190.68 C36.354,192.24 34.694,193.69 33.884,195.67 C32.954,198.53 33.704,201.56 34.104,204.46 C35.474,204.73 36.854,205.02 38.254,205.32 C36.194,211.32 37.744,217.72 39.034,223.72 C40.524,231.25 44.214,238.14 48.464,244.47 C50.344,247.37 53.234,249.4 56.334,250.85 C56.264,251.41 56.124,252.53 56.054,253.08 C49.914,250.19 43.934,246.64 39.294,241.61 C34.024,235.56 30.994,228 28.284,220.56 C25.474,213.47 25.784,205.58 26.704,198.15 C29.174,189.64 33.274,180.78 40.924,175.76 C48.274,171.6 56.504,169.36 64.154,165.84 z" fill="#D62602"/>
        <path d="M64.154,165.84 C73.134,161.66 82.214,157.64 91.604,154.45 C92.054,156.27 92.514,158.1 93.084,159.92 C86.134,162.84 79.414,166.24 72.524,169.29 C68.164,171.49 62.954,173.26 60.804,178.07 C55.614,180.32 50.014,182.57 46.424,187.16 C43.234,191.13 41.984,196.15 40.134,200.79 C40.444,197.9 40.374,194.99 40.264,192.11 C39.634,191.75 38.384,191.04 37.764,190.68 C36.354,192.24 34.694,193.69 33.884,195.67 C32.954,198.53 33.704,201.56 34.104,204.46 C35.474,204.73 36.854,205.02 38.254,205.32 C36.194,211.32 37.744,217.72 39.034,223.72 C40.524,231.25 44.214,238.14 48.464,244.47 C50.344,247.37 53.234,249.4 56.334,250.85 C56.264,251.41 56.124,252.53 56.054,253.08 C49.914,250.19 43.934,246.64 39.294,241.61 C34.024,235.56 30.994,228 28.284,220.56 C25.474,213.47 25.784,205.58 26.704,198.15 C29.174,189.64 33.274,180.78 40.924,175.76 C48.274,171.6 56.504,169.36 64.154,165.84 z" fill-opacity="0" stroke="#D62602" stroke-width="0.5"/>
      </g>
      <g>
        <path d="M109.814,156.42 C113.374,155.29 117.174,155.23 120.794,156.21 C130.984,158.77 141.254,161.21 151.094,164.96 C157.354,167.16 164.064,167.22 170.624,167.56 C167.374,169.22 164.204,171.06 160.804,172.39 C150.754,176.22 141.154,181.13 131.394,185.63 C124.934,188.11 118.944,191.61 112.774,194.69 C103.004,199.05 94.094,205.03 85.364,211.14 C80.484,215.22 75.834,219.59 71.344,224.09 C64.014,231.46 59.474,241.06 56.334,250.85 C53.234,249.4 50.344,247.37 48.464,244.47 C44.214,238.14 40.524,231.25 39.034,223.72 C37.744,217.72 36.194,211.32 38.254,205.32 C38.854,203.79 39.534,202.31 40.134,200.79 C41.984,196.15 43.234,191.13 46.424,187.16 C50.014,182.57 55.614,180.32 60.804,178.07 C72.994,175.92 84.324,170.74 95.474,165.59 C98.254,169.6 102.204,172.52 106.044,175.46 C105.564,175.43 104.594,175.38 104.114,175.35 C96.544,175.04 88.934,174.77 81.394,175.59 C78.934,175.93 76.024,175.98 74.574,178.34 C70.394,182.51 74.184,190.93 80.014,190.43 C93.604,190.37 107.764,191.74 120.674,186.5 C123.234,185.32 126.254,183.12 125.804,179.93 C125.554,175.06 121.494,171.77 118.384,168.52 C114.704,165.13 111.774,161.01 109.814,156.42 M45.524,212.36 C44.584,213.77 43.954,216.15 45.854,217.11 C48.844,217.83 51.964,216.67 54.574,215.25 C55.904,213.5 55.644,211.16 55.904,209.12 C52.124,208.58 48.254,209.64 45.524,212.36 M46.854,230.83 C46.914,233.35 50.824,237.02 52.704,234.52 C52.774,231.5 49.144,230.93 46.854,230.83 z" fill="#AE0604"/>
        <path d="M109.814,156.42 C113.374,155.29 117.174,155.23 120.794,156.21 C130.984,158.77 141.254,161.21 151.094,164.96 C157.354,167.16 164.064,167.22 170.624,167.56 C167.374,169.22 164.204,171.06 160.804,172.39 C150.754,176.22 141.154,181.13 131.394,185.63 C124.934,188.11 118.944,191.61 112.774,194.69 C103.004,199.05 94.094,205.03 85.364,211.14 C80.484,215.22 75.834,219.59 71.344,224.09 C64.014,231.46 59.474,241.06 56.334,250.85 C53.234,249.4 50.344,247.37 48.464,244.47 C44.214,238.14 40.524,231.25 39.034,223.72 C37.744,217.72 36.194,211.32 38.254,205.32 C38.854,203.79 39.534,202.31 40.134,200.79 C41.984,196.15 43.234,191.13 46.424,187.16 C50.014,182.57 55.614,180.32 60.804,178.07 C72.994,175.92 84.324,170.74 95.474,165.59 C98.254,169.6 102.204,172.52 106.044,175.46 C105.564,175.43 104.594,175.38 104.114,175.35 C96.544,175.04 88.934,174.77 81.394,175.59 C78.934,175.93 76.024,175.98 74.574,178.34 C70.394,182.51 74.184,190.93 80.014,190.43 C93.604,190.37 107.764,191.74 120.674,186.5 C123.234,185.32 126.254,183.12 125.804,179.93 C125.554,175.06 121.494,171.77 118.384,168.52 C114.704,165.13 111.774,161.01 109.814,156.42 M45.524,212.36 C44.584,213.77 43.954,216.15 45.854,217.11 C48.844,217.83 51.964,216.67 54.574,215.25 C55.904,213.5 55.644,211.16 55.904,209.12 C52.124,208.58 48.254,209.64 45.524,212.36 M46.854,230.83 C46.914,233.35 50.824,237.02 52.704,234.52 C52.774,231.5 49.144,230.93 46.854,230.83 z" fill-opacity="0" stroke="#AE0604" stroke-width="0.5"/>
      </g>
      <g>
        <path d="M306.624,160.98 C306.774,158.16 310.194,156.79 312.424,158.41 C315.804,160.97 317.044,165.44 316.914,169.54 C314.694,169.54 311.994,170.52 310.274,168.64 C308.294,166.57 306.954,163.81 306.624,160.98 z" fill="#F39529"/>
        <path d="M306.624,160.98 C306.774,158.16 310.194,156.79 312.424,158.41 C315.804,160.97 317.044,165.44 316.914,169.54 C314.694,169.54 311.994,170.52 310.274,168.64 C308.294,166.57 306.954,163.81 306.624,160.98 z" fill-opacity="0" stroke="#F39529" stroke-width="0.5"/>
      </g>
      <g>
        <path d="M409.374,159.32 C412.344,159.42 415.174,160.75 417.694,162.29 C419.654,163.41 420.764,166.75 418.404,168.1 C414.214,169.96 408.504,168.71 406.194,164.54 C405.154,162.21 406.904,159.53 409.374,159.32 z" fill="#F39529"/>
        <path d="M409.374,159.32 C412.344,159.42 415.174,160.75 417.694,162.29 C419.654,163.41 420.764,166.75 418.404,168.1 C414.214,169.96 408.504,168.71 406.194,164.54 C405.154,162.21 406.904,159.53 409.374,159.32 z" fill-opacity="0" stroke="#F39529" stroke-width="0.5"/>
      </g>
      <g>
        <path d="M72.524,169.29 C79.414,166.24 86.134,162.84 93.084,159.92 C93.754,161.85 94.544,163.74 95.474,165.59 C84.324,170.74 72.994,175.92 60.804,178.07 C62.954,173.26 68.164,171.49 72.524,169.29 z" fill="#FE945A"/>
        <path d="M72.524,169.29 C79.414,166.24 86.134,162.84 93.084,159.92 C93.754,161.85 94.544,163.74 95.474,165.59 C84.324,170.74 72.994,175.92 60.804,178.07 C62.954,173.26 68.164,171.49 72.524,169.29 z" fill-opacity="0" stroke="#FE945A" stroke-width="0.5"/>
      </g>
      <g>
        <path d="M176.324,165.76 C178.604,164.87 180.804,163.78 183.014,162.71 C182.634,166.23 182.884,171.24 178.824,172.69 C172.924,174.41 166.784,172.5 160.804,172.39 C164.204,171.06 167.374,169.22 170.624,167.56 C172.524,166.97 174.434,166.4 176.324,165.76 z" fill="#E8AD45"/>
        <path d="M176.324,165.76 C178.604,164.87 180.804,163.78 183.014,162.71 C182.634,166.23 182.884,171.24 178.824,172.69 C172.924,174.41 166.784,172.5 160.804,172.39 C164.204,171.06 167.374,169.22 170.624,167.56 C172.524,166.97 174.434,166.4 176.324,165.76 z" fill-opacity="0" stroke="#E8AD45" stroke-width="0.5"/>
      </g>
      <g>
        <path d="M269.354,176.14 C271.004,172.88 275.104,173.88 277.734,175.19 C280.974,176.63 282.424,180.11 282.994,183.41 C279.784,183.71 276.054,184.8 273.274,182.59 C271.324,180.98 269.374,178.79 269.354,176.14 z" fill="#F39529"/>
        <path d="M269.354,176.14 C271.004,172.88 275.104,173.88 277.734,175.19 C280.974,176.63 282.424,180.11 282.994,183.41 C279.784,183.71 276.054,184.8 273.274,182.59 C271.324,180.98 269.374,178.79 269.354,176.14 z" fill-opacity="0" stroke="#F39529" stroke-width="0.5"/>
      </g>
      <g>
        <path d="M81.394,175.59 C88.934,174.77 96.544,175.04 104.114,175.35 C105.934,177.03 107.864,178.67 109.174,180.83 C108.444,182.59 106.434,183.06 104.814,183.59 C99.214,185.11 93.324,186.11 87.544,185.21 C83.714,184.58 79.984,183.51 76.234,182.55 C76.134,181.87 75.934,180.51 75.834,179.84 C77.664,178.39 79.494,176.94 81.394,175.59 z" fill="#FFFD66"/>
        <path d="M81.394,175.59 C88.934,174.77 96.544,175.04 104.114,175.35 C105.934,177.03 107.864,178.67 109.174,180.83 C108.444,182.59 106.434,183.06 104.814,183.59 C99.214,185.11 93.324,186.11 87.544,185.21 C83.714,184.58 79.984,183.51 76.234,182.55 C76.134,181.87 75.934,180.51 75.834,179.84 C77.664,178.39 79.494,176.94 81.394,175.59 z" fill-opacity="0" stroke="#FFFD66" stroke-width="0.5"/>
      </g>
      <g>
        <path d="M370.534,179.27 C372.724,178.22 375.284,180.61 374.924,182.89 C374.764,185.74 373.784,188.58 372.114,190.91 C370.674,192.83 367.204,193.39 365.804,191.14 C363.584,186.74 366.044,181.08 370.534,179.27 z" fill="#F39529"/>
        <path d="M370.534,179.27 C372.724,178.22 375.284,180.61 374.924,182.89 C374.764,185.74 373.784,188.58 372.114,190.91 C370.674,192.83 367.204,193.39 365.804,191.14 C363.584,186.74 366.044,181.08 370.534,179.27 z" fill-opacity="0" stroke="#F39529" stroke-width="0.5"/>
      </g>
      <g>
        <path d="M112.774,194.69 C118.944,191.61 124.934,188.11 131.394,185.63 C130.574,188.06 129.984,191.02 127.414,192.24 C123.074,195.09 117.714,194.8 112.774,194.69 z" fill="#EAB146"/>
        <path d="M112.774,194.69 C118.944,191.61 124.934,188.11 131.394,185.63 C130.574,188.06 129.984,191.02 127.414,192.24 C123.074,195.09 117.714,194.8 112.774,194.69 z" fill-opacity="0" stroke="#EAB146" stroke-width="0.5"/>
      </g>
      <g>
        <path d="M216.754,189.46 C221.254,188.52 226.044,191.1 228.514,194.87 C225.714,198.87 220.224,198.29 216.214,196.72 C213.254,195.3 213.204,190.2 216.754,189.46 z" fill="#F39529"/>
        <path d="M216.754,189.46 C221.254,188.52 226.044,191.1 228.514,194.87 C225.714,198.87 220.224,198.29 216.214,196.72 C213.254,195.3 213.204,190.2 216.754,189.46 z" fill-opacity="0" stroke="#F39529" stroke-width="0.5"/>
      </g>
      <g>
        <path d="M33.884,195.67 C34.694,193.69 36.354,192.24 37.764,190.68 C38.384,191.04 39.634,191.75 40.264,192.11 C40.374,194.99 40.444,197.9 40.134,200.79 C39.534,202.31 38.854,203.79 38.254,205.32 C36.854,205.02 35.474,204.73 34.104,204.46 C33.704,201.56 32.954,198.53 33.884,195.67 z" fill="#FE975A"/>
        <path d="M33.884,195.67 C34.694,193.69 36.354,192.24 37.764,190.68 C38.384,191.04 39.634,191.75 40.264,192.11 C40.374,194.99 40.444,197.9 40.134,200.79 C39.534,202.31 38.854,203.79 38.254,205.32 C36.854,205.02 35.474,204.73 34.104,204.46 C33.704,201.56 32.954,198.53 33.884,195.67 z" fill-opacity="0" stroke="#FE975A" stroke-width="0.5"/>
      </g>
      <g>
        <path d="M322.994,194.84 C329.114,192.33 336.714,198.84 334.524,205.24 C328.184,207.48 322.304,200.99 322.994,194.84 z" fill="#F39529"/>
        <path d="M322.994,194.84 C329.114,192.33 336.714,198.84 334.524,205.24 C328.184,207.48 322.304,200.99 322.994,194.84 z" fill-opacity="0" stroke="#F39529" stroke-width="0.5"/>
      </g>
      <g>
        <path d="M170.314,211.05 C172.164,208.89 174.494,206.98 177.244,206.11 C179.654,205.53 181.654,208.43 180.934,210.65 C179.834,215.71 174.134,218.1 169.384,217.63 C169.394,215.43 168.584,212.83 170.314,211.05 z" fill="#F39529"/>
        <path d="M170.314,211.05 C172.164,208.89 174.494,206.98 177.244,206.11 C179.654,205.53 181.654,208.43 180.934,210.65 C179.834,215.71 174.134,218.1 169.384,217.63 C169.394,215.43 168.584,212.83 170.314,211.05 z" fill-opacity="0" stroke="#F39529" stroke-width="0.5"/>
      </g>
      <g>
        <path d="M265.944,209.04 C269.354,205.03 275.944,204.56 279.884,208.04 C281.644,209.37 281.094,211.99 279.384,213.1 C274.644,215.12 268.384,213.94 265.944,209.04 z" fill="#F39529"/>
        <path d="M265.944,209.04 C269.354,205.03 275.944,204.56 279.884,208.04 C281.644,209.37 281.094,211.99 279.384,213.1 C274.644,215.12 268.384,213.94 265.944,209.04 z" fill-opacity="0" stroke="#F39529" stroke-width="0.5"/>
      </g>
      <g>
        <path d="M45.524,212.36 C48.254,209.64 52.124,208.58 55.904,209.12 C55.644,211.16 55.904,213.5 54.574,215.25 C51.964,216.67 48.844,217.83 45.854,217.11 C43.954,216.15 44.584,213.77 45.524,212.36 z" fill="#FD885C"/>
        <path d="M45.524,212.36 C48.254,209.64 52.124,208.58 55.904,209.12 C55.644,211.16 55.904,213.5 54.574,215.25 C51.964,216.67 48.844,217.83 45.854,217.11 C43.954,216.15 44.584,213.77 45.524,212.36 z" fill-opacity="0" stroke="#FD885C" stroke-width="0.5"/>
      </g>
      <g>
        <path d="M301.234,221.29 C299.484,217.15 305.054,215.7 308.114,215.84 C312.784,215.04 314.334,222.15 319.164,220.23 C315.714,221.78 312.434,224.02 308.714,224.76 C306.124,223.8 303.504,222.83 301.234,221.29 z" fill="#F39529"/>
        <path d="M301.234,221.29 C299.484,217.15 305.054,215.7 308.114,215.84 C312.784,215.04 314.334,222.15 319.164,220.23 C315.714,221.78 312.434,224.02 308.714,224.76 C306.124,223.8 303.504,222.83 301.234,221.29 z" fill-opacity="0" stroke="#F39529" stroke-width="0.5"/>
      </g>
      <g>
        <path d="M200.774,224.52 C202.764,223 205.284,224.65 206.544,226.35 C208.854,229.33 207.974,233.34 207.994,236.83 C205.914,237.32 203.314,238.29 201.754,236.21 C199.284,232.99 198.744,228.1 200.774,224.52 z" fill="#F39529"/>
        <path d="M200.774,224.52 C202.764,223 205.284,224.65 206.544,226.35 C208.854,229.33 207.974,233.34 207.994,236.83 C205.914,237.32 203.314,238.29 201.754,236.21 C199.284,232.99 198.744,228.1 200.774,224.52 z" fill-opacity="0" stroke="#F39529" stroke-width="0.5"/>
      </g>
      <g>
        <path d="M46.854,230.83 C49.144,230.93 52.774,231.5 52.704,234.52 C50.824,237.02 46.914,233.35 46.854,230.83 z" fill="#FA9263"/>
        <path d="M46.854,230.83 C49.144,230.93 52.774,231.5 52.704,234.52 C50.824,237.02 46.914,233.35 46.854,230.83 z" fill-opacity="0" stroke="#FA9263" stroke-width="0.5"/>
      </g>
      <g>
        <path d="M257.944,236.08 C260.474,235.96 263.144,235.38 265.644,236.18 C268.604,237.59 270.774,240.16 273.124,242.39 C269.744,244.46 266.004,245.9 262.234,247.07 C262.864,246.41 263.514,245.76 264.164,245.12 C261.174,242.8 257.974,240.21 257.944,236.08 z" fill="#F39529"/>
        <path d="M257.944,236.08 C260.474,235.96 263.144,235.38 265.644,236.18 C268.604,237.59 270.774,240.16 273.124,242.39 C269.744,244.46 266.004,245.9 262.234,247.07 C262.864,246.41 263.514,245.76 264.164,245.12 C261.174,242.8 257.974,240.21 257.944,236.08 z" fill-opacity="0" stroke="#F39529" stroke-width="0.5"/>
      </g>
      <g>
        <path d="M237.214,240.91 C239.064,239.79 241.194,240.56 243.164,240.88 C242.774,243.29 242.684,245.92 241.204,247.98 C239.624,250.28 237.114,251.65 234.874,253.2 C230.794,249.87 232.514,242.8 237.214,240.91 z" fill="#F39529"/>
        <path d="M237.214,240.91 C239.064,239.79 241.194,240.56 243.164,240.88 C242.774,243.29 242.684,245.92 241.204,247.98 C239.624,250.28 237.114,251.65 234.874,253.2 C230.794,249.87 232.514,242.8 237.214,240.91 z" fill-opacity="0" stroke="#F39529" stroke-width="0.5"/>
      </g>
      <g>
        <path d="M143.584,242.28 C146.824,240.1 150.844,242.42 153.674,244.26 C155.864,245.55 155.714,248.26 155.974,250.47 C152.354,250.87 148.144,251.41 145.294,248.62 C143.654,247.12 141.064,244.16 143.584,242.28 z" fill="#F39529"/>
        <path d="M143.584,242.28 C146.824,240.1 150.844,242.42 153.674,244.26 C155.864,245.55 155.714,248.26 155.974,250.47 C152.354,250.87 148.144,251.41 145.294,248.62 C143.654,247.12 141.064,244.16 143.584,242.28 z" fill-opacity="0" stroke="#F39529" stroke-width="0.5"/>
      </g>
      <g>
        <path d="M190.604,274.24 C191.714,270.05 195.574,267.13 199.824,266.71 C199.754,270.25 199.384,273.81 199.554,277.37 C197.154,279.47 194.214,280.73 191.114,281.32 C190.824,278.96 190.294,276.6 190.604,274.24 z" fill="#F39529"/>
        <path d="M190.604,274.24 C191.714,270.05 195.574,267.13 199.824,266.71 C199.754,270.25 199.384,273.81 199.554,277.37 C197.154,279.47 194.214,280.73 191.114,281.32 C190.824,278.96 190.294,276.6 190.604,274.24 z" fill-opacity="0" stroke="#F39529" stroke-width="0.5"/>
      </g>
      <g>
        <path d="M105.434,280.13 C107.234,279.04 108.704,280.98 109.634,282.33 C111.834,285.42 110.454,289.5 108.704,292.45 C107.784,294.16 105.224,294.22 103.844,293.11 C99.704,289.84 100.664,282.26 105.434,280.13 z" fill="#F39428"/>
        <path d="M105.434,280.13 C107.234,279.04 108.704,280.98 109.634,282.33 C111.834,285.42 110.454,289.5 108.704,292.45 C107.784,294.16 105.224,294.22 103.844,293.11 C99.704,289.84 100.664,282.26 105.434,280.13 z" fill-opacity="0" stroke="#F39428" stroke-width="0.5"/>
      </g>
      <g>
        <path d="M58.034,294.9 C64.574,293.89 69.084,288.44 71.664,282.74 C71.974,287.34 73.064,292.14 76.234,295.68 C80.694,300.71 86.234,304.98 92.614,307.27 C102.164,310.62 112.234,313.09 122.434,312.39 C120.844,313.39 119.044,314.06 117.154,314.09 C109.474,314.52 101.724,314.6 94.074,313.79 C79.984,310.34 65.434,305.64 54.634,295.54 C55.764,295.34 56.894,295.13 58.034,294.9 z" fill="#F4A931"/>
        <path d="M58.034,294.9 C64.574,293.89 69.084,288.44 71.664,282.74 C71.974,287.34 73.064,292.14 76.234,295.68 C80.694,300.71 86.234,304.98 92.614,307.27 C102.164,310.62 112.234,313.09 122.434,312.39 C120.844,313.39 119.044,314.06 117.154,314.09 C109.474,314.52 101.724,314.6 94.074,313.79 C79.984,310.34 65.434,305.64 54.634,295.54 C55.764,295.34 56.894,295.13 58.034,294.9 z" fill-opacity="0" stroke="#F4A931" stroke-width="0.5"/>
      </g>
      <g>
        <path d="M134.744,297.9 C137.194,296.61 139.754,294.19 142.744,295.16 C145.934,296.17 148.574,298.33 151.444,299.99 C147.754,302.66 143.824,305.15 139.324,306.16 C140.424,305.27 141.524,304.36 142.634,303.47 C139.254,302.79 136.174,301.17 134.744,297.9 z" fill="#F39428"/>
        <path d="M134.744,297.9 C137.194,296.61 139.754,294.19 142.744,295.16 C145.934,296.17 148.574,298.33 151.444,299.99 C147.754,302.66 143.824,305.15 139.324,306.16 C140.424,305.27 141.524,304.36 142.634,303.47 C139.254,302.79 136.174,301.17 134.744,297.9 z" fill-opacity="0" stroke="#F39428" stroke-width="0.5"/>
      </g>
    </g>
  </g>
</svg>
